<?xml version="1.0" encoding="utf-8"?>
<!-- Generator: Adobe Illustrator 27.7.0, SVG Export Plug-In . SVG Version: 6.00 Build 0)  -->
<svg version="1.1" id="레이어_1" xmlns="http://www.w3.org/2000/svg" xmlns:xlink="http://www.w3.org/1999/xlink" x="0px"
	 y="0px" viewBox="0 0 589.89 628.47" style="enable-background:new 0 0 589.89 628.47;" xml:space="preserve">
<style type="text/css">
	.st0{fill:#E4EFFF;}
	.st1{fill:#003D94;}
	.st2{fill:#F8B500;}
	.st3{fill:#003E93;}
</style>
<g>
	<polygon class="st0" points="439.76,465.93 294.97,545.03 150.13,465.93 150.13,83.43 439.76,83.43 	"/>
	<g>
		<path class="st1" d="M185.22,420.31h3.96v17.97h-3.96V420.31z"/>
		<path class="st1" d="M197.86,420.31h5.38l7.64,12.49h0.05v-12.49h3.96v17.97h-5.18l-7.84-12.79h-0.05v12.79h-3.96V420.31z"/>
		<path class="st1" d="M238.78,431.35c0,1.07-0.16,2.05-0.48,2.95c-0.32,0.9-0.8,1.67-1.43,2.33s-1.43,1.18-2.37,1.55
			s-2.04,0.56-3.27,0.56c-1.25,0-2.35-0.19-3.3-0.56c-0.95-0.37-1.74-0.89-2.37-1.55c-0.63-0.66-1.11-1.44-1.43-2.33
			c-0.32-0.9-0.48-1.88-0.48-2.95v-11.04h3.96v10.89c0,0.56,0.09,1.08,0.27,1.55s0.43,0.88,0.75,1.23s0.71,0.62,1.16,0.81
			c0.45,0.19,0.94,0.29,1.46,0.29s1.01-0.1,1.45-0.29c0.44-0.19,0.82-0.47,1.14-0.81s0.57-0.76,0.75-1.23s0.27-0.99,0.27-1.55
			v-10.89h3.96V431.35z"/>
		<path class="st1" d="M260.26,420.31h12.06v3.66h-8.1v3.66h7.49v3.66h-7.49v7.01h-3.96V420.31z"/>
		<path class="st1" d="M280.39,420.31h12.21v3.66h-8.25v3.35h7.79v3.66h-7.79v3.66h8.71v3.66h-12.67V420.31z"/>
		<path class="st1" d="M310.19,424.7c-0.32-0.41-0.76-0.71-1.31-0.9s-1.07-0.29-1.56-0.29c-0.29,0-0.58,0.03-0.89,0.1
			s-0.59,0.17-0.86,0.32c-0.27,0.14-0.49,0.33-0.66,0.57s-0.25,0.52-0.25,0.86c0,0.54,0.2,0.96,0.61,1.24
			c0.41,0.29,0.92,0.53,1.54,0.74c0.62,0.2,1.28,0.41,1.99,0.61s1.38,0.49,1.99,0.86c0.62,0.37,1.13,0.87,1.54,1.5
			c0.41,0.63,0.61,1.46,0.61,2.51c0,1-0.19,1.87-0.56,2.62c-0.37,0.74-0.88,1.36-1.51,1.85c-0.63,0.49-1.37,0.85-2.21,1.09
			c-0.84,0.24-1.72,0.36-2.65,0.36c-1.17,0-2.25-0.18-3.25-0.53c-1-0.36-1.93-0.93-2.79-1.73l2.82-3.1
			c0.41,0.54,0.92,0.96,1.54,1.26c0.62,0.3,1.26,0.44,1.92,0.44c0.32,0,0.65-0.04,0.98-0.11c0.33-0.08,0.62-0.19,0.89-0.34
			s0.47-0.35,0.63-0.58s0.24-0.52,0.24-0.84c0-0.54-0.21-0.97-0.62-1.28c-0.42-0.31-0.93-0.58-1.56-0.8
			c-0.63-0.22-1.3-0.44-2.03-0.66c-0.73-0.22-1.41-0.52-2.03-0.89s-1.15-0.86-1.56-1.47c-0.42-0.61-0.62-1.41-0.62-2.41
			c0-0.96,0.19-1.81,0.57-2.54s0.89-1.34,1.52-1.83c0.63-0.49,1.37-0.86,2.2-1.1c0.83-0.25,1.68-0.37,2.56-0.37
			c1.02,0,2,0.14,2.95,0.43c0.95,0.29,1.8,0.77,2.56,1.45L310.19,424.7z"/>
		<path class="st1" d="M324.43,423.81h-5.13v-3.5h14.22v3.5h-5.13v14.47h-3.96V423.81z"/>
		<path class="st1" d="M340.55,420.31h3.96v17.97h-3.96V420.31z"/>
		<path class="st1" d="M351.42,420.31h4.52l4.44,11.78h0.05l4.52-11.78h4.24l-7.41,17.97h-3.17L351.42,420.31z"/>
		<path class="st1" d="M380.66,420.31h3.27l7.82,17.97h-4.47l-1.55-3.81h-6.98l-1.5,3.81h-4.37L380.66,420.31z M382.18,425.54
			l-2.18,5.58h4.39L382.18,425.54z"/>
		<path class="st1" d="M398.79,420.31h3.96v14.32h7.34v3.66h-11.3V420.31z"/>
	</g>
	<g>
		<g>
			<g>
				<path class="st1" d="M281.32,299.14l-23.29,23.29l0.87,0.87c0.01-0.01,0.02-0.01,0.02,0l-0.01,0.01c4.82,0.6,8.67,1.9,13.18,6.3
					l5.8,5.8v0.01l26.62,26.62c4.3,4.46,5.59,8.28,6.18,13.06l0.01-0.01c0,0.01,0,0.02,0,0.02l0.87,0.87l23.29-23.29l-0.87-0.87
					c-0.01,0.01-0.02,0.01-0.02,0l0.01-0.01c-4.82-0.6-8.67-1.9-13.18-6.3l-3.87-3.87v-0.01l-28.54-28.54
					c-4.3-4.46-5.59-8.28-6.18-13.06l-0.01,0.01c0-0.01,0-0.02,0-0.02L281.32,299.14z"/>
				<polygon class="st1" points="265.25,278.95 237.83,306.37 233.87,310.33 253.98,317.26 276.15,295.09 269.22,274.99 				"/>
			</g>
			<path class="st2" d="M227.83,267.89c-1.24-1.25-1.72-2.86-2.11-4.5c-0.51-2.18-1.34-4.18-2.71-5.98
				c-4.97-6.57-14.98-8.15-21.69-3.39c-0.4,0.28-0.89,0.53-0.79,1.15c0.09,0.56,0.56,0.68,1,0.86c4.28,1.74,6.6,4.92,7.19,9.51
				c0.5,3.91,1.09,7.83,2.3,11.6c1.98,6.16,6.35,9.35,12.69,10.04c7.42,0.8,14.83,1.63,22.25,2.44c1.92,0.21,2.66-0.54,2.45-2.47
				c-0.88-8.03-1.86-16.06-2.63-24.1c-0.58-6.1-4.84-9.18-8.52-9.97c-3.65-0.78-6.97,0.07-9.97,2.23c-0.27,0.19-0.61,0.39-0.46,0.82
				c0.16,0.45,0.55,0.3,0.87,0.32c3.59,0.2,6.57,1.61,8.65,4.6c1.84,2.65,1.51,5.84-0.63,7.6
				C233.54,270.44,230.04,270.1,227.83,267.89z"/>
		</g>
		<g>
			<g>
				<path class="st1" d="M331.92,322.43l-23.29-23.29l-0.87,0.87c0.01,0.01,0.01,0.02,0,0.02l-0.01-0.01
					c-0.6,4.82-1.9,8.67-6.3,13.18l-5.8,5.8h-0.01l-26.62,26.62c-4.46,4.3-8.28,5.59-13.06,6.18l0.01,0.01c-0.01,0-0.02,0-0.02,0
					l-0.87,0.87l23.29,23.29l0.87-0.87c-0.01-0.01-0.01-0.02,0-0.02l0.01,0.01c0.6-4.82,1.9-8.67,6.3-13.18l3.87-3.87h0.01
					l28.54-28.54c4.46-4.3,8.28-5.59,13.06-6.18l-0.01-0.01c0.01,0,0.02,0,0.02,0L331.92,322.43z"/>
				<polygon class="st1" points="352.11,306.37 324.69,278.95 320.73,274.99 313.79,295.09 335.96,317.26 356.07,310.33 				"/>
			</g>
			<path class="st2" d="M363.17,268.94c1.25-1.24,2.86-1.72,4.5-2.11c2.18-0.51,4.18-1.34,5.98-2.71
				c6.57-4.97,8.15-14.98,3.39-21.69c-0.28-0.4-0.53-0.89-1.15-0.79c-0.56,0.09-0.68,0.56-0.86,1c-1.74,4.28-4.92,6.6-9.51,7.19
				c-3.91,0.5-7.83,1.09-11.6,2.3c-6.16,1.98-9.35,6.35-10.04,12.69c-0.8,7.42-1.63,14.83-2.44,22.25
				c-0.21,1.92,0.54,2.66,2.47,2.45c8.03-0.88,16.06-1.86,24.1-2.63c6.1-0.58,9.18-4.84,9.97-8.52c0.78-3.65-0.07-6.97-2.23-9.97
				c-0.19-0.27-0.39-0.61-0.82-0.46c-0.45,0.16-0.3,0.55-0.32,0.87c-0.2,3.59-1.61,6.57-4.6,8.65c-2.65,1.84-5.84,1.51-7.6-0.63
				C360.62,274.66,360.95,271.15,363.17,268.94z"/>
		</g>
	</g>
	<g>
		<g>
			<path class="st3" d="M227.37,148.64h-17.49v0.65c0,0,0.01,0,0.01,0.01c1.53,1.96,2.48,3.84,2.57,6.97v26.4
				c0,2.53-0.99,4.82-2.59,6.54c-1.75,1.87-4.24,3.05-7,3.05c-2.78,0-5.27-1.19-7.02-3.07c-1.59-1.71-2.57-4-2.57-6.52v-26.4
				c0.1-3.14,1.04-5.01,2.57-6.97c0,0,0-0.01,0.01-0.01v-0.65h-17.49v0.65c0,0,0,0,0.01,0.01h-0.01c1.61,2.07,2.57,4.02,2.58,7.47
				v4.16v20.87c0,12.11,9.81,21.91,21.91,21.91c0,0,0,0,0,0s0,0,0,0c12.1,0,21.91-9.81,21.91-21.91v-20.87v-4.16
				c0.01-3.45,0.97-5.4,2.58-7.47h-0.01c0.01,0,0.01-0.01,0.01-0.01V148.64z"/>
			<path class="st3" d="M279.15,149.07h-17.49v0.65c0.01,0,0.01,0,0.01,0.01h-0.01c1.61,2.07,2.57,4.02,2.59,7.47v22.75l-17.3-27.85
				l0,0l-1.89-3.04h-12.31v17.25v0.87v27.9c0,3.5-0.97,5.46-2.59,7.55v0.65h17.49v-0.65c0,0,0,0,0,0c-1.56-2.01-2.51-3.91-2.58-7.17
				V172.4l16.76,26.97l0,0l2.43,3.91h12.32v-17.25v-28.96c0.04-3.36,1-5.3,2.58-7.34h0c0,0,0.01-0.01,0.01-0.01V149.07z"/>
		</g>
		<g>
			<path class="st1" d="M411.52,149.07h-17.49v0.65c0.01,0,0.01,0,0.01,0.01h-0.01c1.61,2.07,2.57,4.02,2.59,7.47v22.75l-17.3-27.85
				l0,0l-1.89-3.04h-12.31v17.25v0.87v27.9c0,3.5-0.97,5.46-2.59,7.55v0.65H380v-0.65c0,0,0,0,0,0c-1.56-2.01-2.51-3.91-2.58-7.17
				V172.4l16.76,26.97l0,0l2.43,3.91h12.32v-17.25v-28.96c0.04-3.36,1-5.3,2.58-7.34h0c0,0,0.01-0.01,0.01-0.01V149.07z"/>
			<path class="st1" d="M335.14,147.52L335.14,147.52c-12.41,0-22.48,10.06-22.48,22.48v12.35c0,12.41,10.06,22.48,22.48,22.48l0,0
				c12.41,0,22.48-10.06,22.48-22.48V170C357.62,157.59,347.56,147.52,335.14,147.52z M345.3,183.3c0,5.39-4.37,9.76-9.76,9.76
				h-0.79c-5.39,0-9.76-4.37-9.76-9.76v-14.57c0-5.39,4.37-9.76,9.76-9.76h0.79c5.39,0,9.76,4.37,9.76,9.76V183.3z"/>
		</g>
		<g>
			<path class="st1" d="M305.49,163.09H288v0.65c0.01,0,0.01,0,0.01,0.01H288c1.58,2.03,2.54,3.96,2.59,7.31v4.35l0,0v19.98
				c-0.06,3.29-1.01,5.21-2.58,7.22h0.01c0,0-0.01,0.01-0.01,0.01v0.65h17.49v-0.65c-0.01,0-0.01,0-0.01-0.01h0.01
				c-1.58-2.03-2.54-3.96-2.59-7.31v-2.91l0,0v-21.43c0.06-3.29,1.01-5.21,2.58-7.22h-0.01c0,0,0.01-0.01,0.01-0.01V163.09z"/>
			<polygon class="st1" points="307.04,149.48 286.45,149.48 283.48,149.48 288.43,159.63 305.07,159.63 310.01,149.48 			"/>
		</g>
		<path class="st2" d="M297.13,130.59c0.01-0.89,0.41-1.63,0.85-2.36c0.59-0.96,1.01-1.97,1.17-3.1c0.57-4.11-2.43-8.25-6.52-8.94
			c-0.24-0.04-0.51-0.13-0.69,0.13c-0.17,0.23-0.04,0.44,0.05,0.66c0.9,2.15,0.6,4.11-0.83,5.95c-1.22,1.57-2.4,3.18-3.32,4.96
			c-1.49,2.9-1.07,5.6,0.95,8.1c2.36,2.93,4.71,5.87,7.06,8.8c0.61,0.76,1.14,0.76,1.76-0.01c2.55-3.18,5.06-6.39,7.66-9.53
			c1.97-2.38,1.55-5,0.52-6.6c-1.02-1.58-2.51-2.46-4.35-2.76c-0.16-0.03-0.36-0.08-0.46,0.13c-0.1,0.22,0.09,0.3,0.2,0.43
			c1.21,1.35,1.77,2.92,1.44,4.72c-0.29,1.6-1.54,2.62-2.94,2.49C298.25,133.53,297.12,132.16,297.13,130.59z"/>
	</g>
</g>
</svg>
