<?xml version="1.0" encoding="utf-8"?>
<!-- Generator: Adobe Illustrator 27.7.0, SVG Export Plug-In . SVG Version: 6.00 Build 0)  -->
<svg version="1.1" id="레이어_1" xmlns="http://www.w3.org/2000/svg" xmlns:xlink="http://www.w3.org/1999/xlink" x="0px"
	 y="0px" viewBox="0 0 589.89 628.47" style="enable-background:new 0 0 589.89 628.47;" xml:space="preserve">
<style type="text/css">
	.st0{fill:#003D94;}
	.st1{fill:#F8B500;}
</style>
<g>
	<g>
		<g>
			<g>
				<path class="st0" d="M279.12,266.61l-41.66,41.66l1.56,1.56c0.01-0.01,0.03-0.01,0.04-0.01l-0.02,0.02
					c8.62,1.07,15.5,3.39,23.58,11.26l10.36,10.36v0.02l47.6,47.6c7.69,7.98,9.99,14.81,11.06,23.36l0.02-0.02
					c-0.01,0.02,0,0.03-0.01,0.04l1.56,1.56l41.66-41.66l-1.56-1.56c-0.01,0.01-0.03,0.01-0.04,0.01l0.02-0.02
					c-8.62-1.07-15.5-3.39-23.58-11.26l-6.92-6.92v-0.02l-51.04-51.04c-7.69-7.98-9.99-14.81-11.06-23.36l-0.02,0.02
					c0.01-0.02,0-0.03,0.01-0.04L279.12,266.61z"/>
				<polygon class="st0" points="250.4,230.51 201.37,279.55 194.28,286.63 230.24,299.03 269.88,259.39 257.49,223.43 				"/>
			</g>
			<path class="st1" d="M183.48,210.73c-2.21-2.24-3.08-5.11-3.77-8.05c-0.91-3.89-2.4-7.47-4.84-10.69
				c-8.88-11.74-26.79-14.58-38.78-6.06c-0.71,0.51-1.58,0.95-1.41,2.06c0.15,1,1,1.21,1.78,1.53c7.65,3.12,11.8,8.8,12.86,17
				c0.9,7,1.95,14,4.12,20.75c3.55,11.01,11.35,16.73,22.7,17.95c13.27,1.43,26.53,2.92,39.79,4.36c3.44,0.38,4.76-0.96,4.38-4.42
				c-1.58-14.37-3.33-28.72-4.71-43.11c-1.04-10.9-8.65-16.42-15.24-17.84c-6.52-1.4-12.46,0.13-17.83,4
				c-0.47,0.34-1.09,0.7-0.82,1.47c0.28,0.8,0.98,0.54,1.56,0.57c6.42,0.37,11.76,2.88,15.47,8.23c3.28,4.73,2.71,10.45-1.13,13.6
				C193.69,215.3,187.42,214.7,183.48,210.73z"/>
		</g>
		<g>
			<g>
				<path class="st0" d="M369.62,308.27l-41.66-41.66l-1.56,1.56c0.01,0.01,0.01,0.03,0.01,0.04l-0.02-0.02
					c-1.07,8.62-3.39,15.5-11.26,23.58l-10.36,10.36h-0.02l-47.6,47.6c-7.98,7.69-14.81,9.99-23.36,11.06l0.02,0.02
					c-0.02-0.01-0.03,0-0.04-0.01l-1.56,1.56l41.66,41.66l1.56-1.56c-0.01-0.01-0.01-0.03-0.01-0.04l0.02,0.02
					c1.07-8.62,3.39-15.5,11.26-23.58l6.92-6.92h0.02l51.04-51.04c7.98-7.69,14.81-9.99,23.36-11.06l-0.02-0.02
					c0.02,0.01,0.03,0,0.04,0.01L369.62,308.27z"/>
				<polygon class="st0" points="405.72,279.55 356.69,230.51 349.6,223.43 337.2,259.39 376.85,299.03 412.81,286.63 				"/>
			</g>
			<path class="st1" d="M425.5,212.62c2.24-2.21,5.11-3.08,8.05-3.77c3.89-0.91,7.47-2.4,10.69-4.84
				c11.74-8.88,14.58-26.79,6.06-38.78c-0.51-0.71-0.95-1.58-2.06-1.41c-1,0.15-1.21,1-1.53,1.78c-3.12,7.65-8.8,11.8-17,12.86
				c-7,0.9-14,1.95-20.75,4.12c-11.01,3.55-16.73,11.35-17.95,22.7c-1.43,13.27-2.92,26.53-4.36,39.79
				c-0.38,3.44,0.96,4.76,4.42,4.38c14.37-1.58,28.72-3.33,43.11-4.71c10.9-1.04,16.42-8.65,17.84-15.24
				c1.4-6.52-0.13-12.46-4-17.83c-0.34-0.47-0.7-1.09-1.47-0.82c-0.8,0.28-0.54,0.98-0.57,1.56c-0.37,6.42-2.88,11.76-8.23,15.47
				c-4.73,3.28-10.45,2.71-13.6-1.13C420.94,222.84,421.54,216.57,425.5,212.62z"/>
		</g>
	</g>
	<g>
		<path class="st0" d="M154.34,440.64h5.16v23.43h-5.16V440.64z"/>
		<path class="st0" d="M170.82,440.64h7.02l9.96,16.28h0.07v-16.28h5.16v23.43h-6.75l-10.23-16.68h-0.07v16.68h-5.16V440.64z"/>
		<path class="st0" d="M224.17,455.04c0,1.39-0.21,2.67-0.63,3.84c-0.42,1.17-1.04,2.18-1.87,3.04s-1.86,1.54-3.09,2.02
			c-1.24,0.49-2.66,0.73-4.27,0.73c-1.63,0-3.07-0.24-4.3-0.73c-1.24-0.48-2.27-1.16-3.09-2.02c-0.83-0.86-1.45-1.87-1.87-3.04
			c-0.42-1.17-0.63-2.45-0.63-3.84v-14.4h5.16v14.2c0,0.73,0.12,1.4,0.35,2.02c0.23,0.62,0.56,1.15,0.98,1.6
			c0.42,0.45,0.92,0.81,1.51,1.06c0.58,0.25,1.22,0.38,1.9,0.38s1.31-0.13,1.89-0.38c0.57-0.25,1.07-0.61,1.49-1.06
			c0.42-0.45,0.74-0.99,0.98-1.6c0.23-0.62,0.35-1.29,0.35-2.02v-14.2h5.16V455.04z"/>
		<path class="st0" d="M252.16,440.64h15.72v4.77h-10.56v4.76h9.76v4.77h-9.76v9.13h-5.16V440.64z"/>
		<path class="st0" d="M278.41,440.64h15.92v4.77h-10.76v4.37h10.16v4.77h-10.16v4.77h11.35v4.76h-16.51V440.64z"/>
		<path class="st0" d="M317.26,446.37c-0.42-0.53-0.99-0.92-1.7-1.18c-0.72-0.25-1.4-0.38-2.04-0.38c-0.37,0-0.76,0.04-1.16,0.13
			c-0.4,0.09-0.77,0.23-1.13,0.41c-0.35,0.19-0.64,0.44-0.86,0.75c-0.22,0.31-0.33,0.68-0.33,1.12c0,0.71,0.26,1.25,0.79,1.62
			c0.53,0.38,1.2,0.7,2,0.96c0.8,0.26,1.67,0.53,2.6,0.79s1.79,0.64,2.6,1.13c0.8,0.49,1.47,1.14,2,1.95
			c0.53,0.82,0.79,1.91,0.79,3.28c0,1.3-0.24,2.44-0.73,3.41c-0.49,0.97-1.14,1.77-1.97,2.41c-0.83,0.64-1.79,1.12-2.88,1.42
			c-1.09,0.31-2.24,0.46-3.46,0.46c-1.52,0-2.93-0.23-4.24-0.7c-1.3-0.46-2.51-1.21-3.64-2.25l3.67-4.04c0.53,0.71,1.2,1.25,2,1.64
			c0.8,0.39,1.64,0.58,2.5,0.58c0.42,0,0.84-0.05,1.27-0.15c0.43-0.1,0.81-0.25,1.16-0.45s0.62-0.45,0.83-0.76
			c0.21-0.31,0.31-0.67,0.31-1.09c0-0.71-0.27-1.26-0.81-1.67c-0.54-0.41-1.22-0.75-2.03-1.04c-0.82-0.29-1.7-0.57-2.65-0.86
			s-1.83-0.67-2.65-1.16c-0.82-0.48-1.49-1.13-2.03-1.92c-0.54-0.79-0.81-1.84-0.81-3.14c0-1.26,0.25-2.36,0.74-3.31
			c0.5-0.95,1.16-1.74,1.98-2.38c0.83-0.64,1.78-1.12,2.86-1.44c1.08-0.32,2.19-0.48,3.34-0.48c1.32,0,2.6,0.19,3.84,0.56
			c1.23,0.37,2.35,1,3.34,1.89L317.26,446.37z"/>
		<path class="st0" d="M335.83,445.21h-6.69v-4.57h18.53v4.57h-6.69v18.86h-5.16V445.21z"/>
		<path class="st0" d="M356.84,440.64H362v23.43h-5.16V440.64z"/>
		<path class="st0" d="M371.01,440.64h5.89l5.79,15.36h0.07l5.89-15.36h5.53l-9.66,23.43h-4.14L371.01,440.64z"/>
		<path class="st0" d="M409.13,440.64h4.27l10.19,23.43h-5.82l-2.02-4.96h-9.1l-1.95,4.96H399L409.13,440.64z M411.12,447.46
			l-2.85,7.28H414L411.12,447.46z"/>
		<path class="st0" d="M432.76,440.64h5.16v18.67h9.56v4.76h-14.73V440.64z"/>
	</g>
</g>
</svg>
