<?xml version="1.0" encoding="utf-8"?>
<!-- Generator: Adobe Illustrator 27.7.0, SVG Export Plug-In . SVG Version: 6.00 Build 0)  -->
<svg version="1.1" id="레이어_1" xmlns="http://www.w3.org/2000/svg" xmlns:xlink="http://www.w3.org/1999/xlink" x="0px"
	 y="0px" viewBox="0 0 458.71 174.49" style="enable-background:new 0 0 458.71 174.49;" xml:space="preserve">
<style type="text/css">
	.st0{fill:#003D94;}
	.st1{fill:#F8B500;}
</style>
<g>
	<g>
		<path class="st0" d="M96.4,63.93H61.99v1.29c0.01,0,0.02,0.01,0.02,0.01c3.01,3.87,4.87,7.55,5.07,13.72v51.95
			c0,4.98-1.94,9.49-5.09,12.86c-3.45,3.69-8.34,6.01-13.78,6.01c-5.46,0-10.37-2.34-13.81-6.05c-3.13-3.37-5.06-7.87-5.06-12.83
			V78.95c0.19-6.17,2.05-9.86,5.07-13.72c0,0,0.01-0.01,0.02-0.01v-1.29H0v1.29c0,0,0.01,0.01,0.02,0.01H0
			c3.17,4.07,5.06,7.92,5.08,14.7v8.19v41.06c0,23.82,19.31,43.11,43.11,43.11c0,0,0,0,0.01,0s0,0,0.01,0
			c23.81,0,43.11-19.29,43.11-43.11V88.12v-8.19c0.02-6.78,1.92-10.63,5.08-14.7h-0.02c0.01,0,0.02-0.01,0.02-0.01V63.93z"/>
		<path class="st0" d="M198.28,64.78h-34.41v1.29c0.01,0,0.02,0.01,0.02,0.01h-0.02c3.17,4.07,5.06,7.92,5.09,14.7v44.76
			l-34.04-54.79l-0.01,0.01l-3.72-5.99h-24.22v33.94v1.71v54.88c0,6.88-1.91,10.75-5.09,14.85v1.28h34.4v-1.28c0,0,0-0.01-0.01-0.01
			c-3.07-3.95-4.94-7.69-5.08-14.1v-45.37l32.97,53.07l0,0l4.78,7.69h24.24V137.5V80.53c0.08-6.62,1.96-10.43,5.08-14.45h0
			c0.01,0,0.02-0.01,0.02-0.01V64.78z"/>
	</g>
	<g>
		<path class="st0" d="M458.71,64.78h-34.41v1.29c0.01,0,0.02,0.01,0.02,0.01h-0.02c3.17,4.07,5.06,7.92,5.09,14.7v44.76
			l-34.04-54.79l-0.01,0.01l-3.72-5.99h-24.22v33.94v1.71v54.88c0,6.88-1.91,10.75-5.09,14.85v1.28h34.4v-1.28c0,0,0-0.01-0.01-0.01
			c-3.07-3.95-4.94-7.69-5.08-14.1v-45.37l32.97,53.07l0,0l4.78,7.69h24.24V137.5V80.53c0.08-6.62,1.96-10.43,5.08-14.45h0
			c0.01,0,0.02-0.01,0.02-0.01V64.78z"/>
		<path class="st0" d="M308.44,61.74L308.44,61.74c-24.42,0-44.22,19.8-44.22,44.22v24.3c0,24.42,19.8,44.22,44.22,44.22l0,0
			c24.42,0,44.22-19.8,44.22-44.22v-24.3C352.67,81.54,332.87,61.74,308.44,61.74z M328.42,132.13c0,10.6-8.6,19.2-19.2,19.2h-1.55
			c-10.6,0-19.2-8.6-19.2-19.2v-28.67c0-10.6,8.6-19.2,19.2-19.2h1.55c10.6,0,19.2,8.6,19.2,19.2V132.13z"/>
	</g>
	<g>
		<path class="st0" d="M250.1,92.37h-34.4v1.29c0.01,0,0.02,0.01,0.02,0.01h-0.02c3.12,4,5,7.8,5.09,14.38v8.56l-0.01,0.01v39.31
			c-0.12,6.47-1.99,10.24-5.08,14.21h0.02c-0.01,0-0.01,0.01-0.02,0.01v1.29h34.4v-1.29c-0.01,0-0.02-0.01-0.02-0.01h0.02
			c-3.12-4-5-7.8-5.09-14.38v-5.72l0.01-0.01v-42.16c0.12-6.47,1.99-10.24,5.08-14.21h-0.02c0.01,0,0.01-0.01,0.02-0.01V92.37z"/>
		<polygon class="st0" points="253.14,65.6 212.65,65.6 206.8,65.6 216.53,85.56 249.27,85.56 259,65.6 		"/>
	</g>
	<path class="st1" d="M233.64,28.42c0.01-1.75,0.8-3.21,1.68-4.64c1.17-1.88,1.99-3.87,2.3-6.09c1.12-8.09-4.79-16.23-12.84-17.59
		c-0.48-0.08-0.99-0.25-1.36,0.25c-0.33,0.45-0.08,0.87,0.1,1.3c1.78,4.23,1.18,8.08-1.63,11.71c-2.39,3.1-4.73,6.26-6.52,9.75
		c-2.93,5.71-2.11,11.01,1.86,15.95c4.64,5.77,9.26,11.55,13.9,17.32c1.2,1.5,2.25,1.49,3.45-0.02c5.02-6.26,9.96-12.57,15.06-18.76
		c3.87-4.69,3.05-9.83,1.02-12.98c-2.01-3.11-4.94-4.84-8.56-5.43c-0.32-0.05-0.7-0.15-0.9,0.25c-0.21,0.42,0.17,0.6,0.39,0.84
		c2.37,2.66,3.48,5.74,2.84,9.3c-0.57,3.15-3.04,5.16-5.78,4.89C235.86,34.22,233.64,31.52,233.64,28.42z"/>
</g>
</svg>
