<svg xmlns="http://www.w3.org/2000/svg" width="19" height="19" fill="none"><path fill="url(#a)" d="M9.5 0A9.5 9.5 0 0 0 0 9.5 9.5 9.5 0 0 0 9.5 19 9.5 9.5 0 0 0 19 9.5 9.5 9.5 0 0 0 9.5 0Zm4.434 12.825a.67.67 0 0 1-.938.14l-3.937-2.923a.672.672 0 0 1-.268-.593V3.39a.67.67 0 0 1 1.34 0v5.778l3.664 2.72c.297.22.36.64.139.938Z"/><defs><linearGradient id="a" x1="16.5" x2="1.5" y1="16" y2="4.5" gradientUnits="userSpaceOnUse"><stop stop-color="#43B9B9"/><stop offset="1" stop-color="#3BDE9A"/></linearGradient></defs></svg>