<?xml version="1.0" standalone="no"?>
<!DOCTYPE svg PUBLIC "-//W3C//DTD SVG 20010904//EN"
 "http://www.w3.org/TR/2001/REC-SVG-20010904/DTD/svg10.dtd">
<svg version="1.0" xmlns="http://www.w3.org/2000/svg"
 width="512.000000pt" height="512.000000pt" viewBox="0 0 512.000000 512.000000"
 preserveAspectRatio="xMidYMid meet">

<g transform="translate(0.000000,512.000000) scale(0.100000,-0.100000)"
fill="#BBC7D3" stroke-width="6">
<path d="M1960 5105 c-148 -33 -265 -96 -373 -202 -207 -202 -278 -493 -187
-765 28 -84 40 -110 89 -188 l16 -25 -25 16 c-177 112 -374 152 -560 115 -481
-98 -743 -607 -539 -1046 16 -36 42 -82 56 -102 l26 -38 -26 -37 c-135 -196
-163 -477 -70 -697 120 -286 416 -478 714 -464 43 2 79 1 79 -1 0 -2 -18 -25
-40 -51 -125 -149 -285 -437 -365 -654 -79 -214 -130 -475 -142 -716 -5 -115
-4 -129 16 -167 38 -76 124 -102 201 -63 54 28 80 80 80 164 0 363 136 799
349 1117 97 146 101 148 101 65 0 -418 371 -769 785 -743 140 9 275 54 378
124 l37 26 38 -26 c20 -14 66 -40 102 -56 421 -195 911 38 1037 493 12 43 17
99 17 191 0 120 -3 137 -33 225 -29 86 -42 114 -90 190 l-16 25 40 -25 c22
-13 49 -29 60 -36 11 -7 62 -27 113 -44 270 -90 560 -21 761 183 98 100 162
209 198 341 23 86 23 279 0 366 -20 75 -67 178 -104 233 l-26 37 26 38 c104
151 149 371 113 552 -91 447 -542 713 -968 570 -84 -28 -112 -41 -188 -89
l-25 -16 25 40 c13 22 29 49 36 60 7 11 27 62 44 113 142 426 -123 877 -570
968 -181 36 -401 -9 -552 -113 l-37 -25 -30 21 c-46 33 -170 89 -236 106 -85
23 -255 28 -335 10z m242 -296 c74 -15 154 -60 231 -128 102 -92 155 -91 260
4 153 139 339 171 515 88 74 -34 170 -131 204 -204 54 -115 61 -250 19 -357
-11 -28 -47 -91 -80 -139 -155 -232 -390 -607 -396 -633 -10 -47 4 -89 45
-130 46 -46 100 -59 151 -37 33 14 388 239 597 379 57 38 126 78 155 89 106
42 241 35 356 -19 74 -34 169 -130 204 -205 83 -177 51 -360 -90 -516 -92
-103 -93 -156 -2 -258 32 -36 71 -91 88 -123 113 -211 22 -488 -196 -598 -113
-57 -251 -66 -361 -23 -28 11 -91 47 -139 80 -232 155 -607 390 -633 396 -47
10 -89 -4 -130 -45 -41 -41 -55 -83 -45 -130 6 -25 159 -271 396 -635 78 -119
98 -167 106 -251 17 -178 -79 -355 -236 -438 -180 -94 -368 -66 -530 81 -103
92 -156 93 -258 2 -128 -113 -254 -155 -392 -131 -100 17 -176 56 -246 127
-97 96 -144 226 -132 359 8 84 35 148 106 253 155 232 390 607 396 633 10 47
-4 89 -45 130 -46 46 -100 59 -151 37 -30 -12 -284 -173 -614 -389 -55 -35
-120 -72 -144 -82 -100 -39 -239 -30 -350 22 -74 34 -169 130 -204 205 -83
177 -51 361 88 514 95 105 96 158 4 260 -113 128 -155 254 -131 394 17 100 55
174 126 244 97 97 227 144 360 132 86 -8 147 -34 268 -115 209 -140 564 -365
597 -379 108 -46 234 80 188 188 -14 33 -239 388 -379 597 -81 121 -107 182
-115 268 -12 134 35 263 131 359 111 111 258 155 408 124z"/>
<path d="M2488 2999 c-43 -22 -78 -81 -78 -129 0 -50 35 -107 80 -130 21 -11
53 -20 70 -20 76 0 150 74 150 150 0 50 -35 107 -80 130 -49 25 -94 25 -142
-1z"/>
</g>
</svg>
