<svg xmlns="http://www.w3.org/2000/svg" width="18" height="18" fill="none"><g fill="#BBC7D3"><path d="M2.107 8.16A2.105 2.105 0 0 0 0 10.262v2.83c0 1.162.943 2.104 2.107 2.104a2.105 2.105 0 0 0 2.107-2.104v-2.83A2.105 2.105 0 0 0 2.107 8.16ZM6.186 10.985a.713.713 0 1 0 .001-1.425.713.713 0 0 0 0 1.425ZM9 10.985A.713.713 0 1 0 9 9.56a.713.713 0 0 0 0 1.425ZM11.824 10.985a.713.713 0 1 0 .001-1.425.713.713 0 0 0 0 1.425ZM9.005 18a2.105 2.105 0 0 0 2.106-2.103 2.105 2.105 0 0 0-2.106-2.104A2.105 2.105 0 0 0 6.9 15.897C6.9 17.058 7.842 18 9.005 18ZM4.115 6.313a4.887 4.887 0 0 1 4.89-4.884 4.887 4.887 0 0 1 4.88 5.175.631.631 0 0 0 .548.658l.16.023a.633.633 0 0 0 .72-.582v-.007c.231-3.8-2.994-6.967-6.795-6.678a6.317 6.317 0 0 0-5.827 6.575.716.716 0 1 0 1.43-.063 4.424 4.424 0 0 1-.005-.217ZM15.893 8.16c-.246 0-.48.041-.7.119v6.241c0 .184-.015.366-.043.542a2.105 2.105 0 0 0 2.85-1.97v-2.828a2.105 2.105 0 0 0-2.107-2.104Z"/><path d="M15.193 8.279a2.105 2.105 0 0 0-1.407 1.984v2.83c0 .901.568 1.67 1.365 1.969.028-.176.042-.358.042-.542V8.279Z"/><path d="M13.786 10.263v4.227a2.11 2.11 0 0 1-2.11 2.109H8.76v1.4h2.947a3.483 3.483 0 0 0 3.485-3.479V8.279a2.105 2.105 0 0 0-1.408 1.984h.001Z"/></g></svg>