<svg xmlns="http://www.w3.org/2000/svg" xml:space="preserve" id="레이어_1" x="0" y="0" style="enable-background:new 0 0 256.07 256.41" version="1.1" viewBox="0 0 256.07 256.41"><style>.st1{fill:#ff0031}</style><linearGradient id="SVGID_1_" x1="39.937" x2="215.987" y1="46.523" y2="209.747" gradientUnits="userSpaceOnUse"><stop offset="0" style="stop-color:#ffd600"/><stop offset="1" style="stop-color:#ff8e00"/></linearGradient><circle cx="128.04" cy="128.2" r="128.2" style="fill:url(#SVGID_1_)"/><path d="M110.23 71.06c-8.38-7.89-21.76-7.07-29.9 1.07-.2.2-.52.2-.72 0-8.14-8.14-21.52-8.97-29.9-1.07-8.67 8.17-8.83 21.83-.46 30.19l24.29 24.29c3.55 3.55 9.31 3.55 12.86 0l23.31-23.31.98-.98c8.37-8.37 8.22-22.03-.46-30.19zM206.35 71.06c-8.38-7.89-21.76-7.07-29.9 1.07-.2.2-.52.2-.72 0-8.14-8.14-21.52-8.97-29.9-1.07-8.67 8.17-8.83 21.83-.46 30.19l24.29 24.29c3.55 3.55 9.31 3.55 12.86 0l23.31-23.31.98-.98c8.37-8.37 8.22-22.03-.46-30.19zM55.13 150.28c-4.77 0-8.23 4.66-6.72 9.19 11.08 33.37 42.54 57.44 79.63 57.44s68.55-24.07 79.63-57.44c1.5-4.53-1.95-9.19-6.72-9.19H55.13z" class="st1"/></svg>