<?xml version="1.0" encoding="utf-8"?>
<!-- Generator: Adobe Illustrator 27.7.0, SVG Export Plug-In . SVG Version: 6.00 Build 0)  -->
<svg version="1.1" id="레이어_1" xmlns="http://www.w3.org/2000/svg" xmlns:xlink="http://www.w3.org/1999/xlink" x="0px"
	 y="0px" viewBox="0 0 256.07 256.41" style="enable-background:new 0 0 256.07 256.41;" xml:space="preserve">
<style type="text/css">
	.st0{fill:url(#SVGID_1_);}
	.st1{fill:#FF0031;}
</style>
<g>
	<linearGradient id="SVGID_1_" gradientUnits="userSpaceOnUse" x1="39.9368" y1="46.5225" x2="215.9865" y2="209.7474">
		<stop  offset="0" style="stop-color:#FFD600"/>
		<stop  offset="1" style="stop-color:#FF8E00"/>
	</linearGradient>
	<circle class="st0" cx="128.04" cy="128.2" r="128.2"/>
	<g>
		<g>
			<path class="st1" d="M110.23,71.06c-8.38-7.89-21.76-7.07-29.9,1.07l0,0c-0.2,0.2-0.52,0.2-0.72,0l0,0
				c-8.14-8.14-21.52-8.97-29.9-1.07c-8.67,8.17-8.83,21.83-0.46,30.19l24.29,24.29c3.55,3.55,9.31,3.55,12.86,0l23.31-23.31
				l0.98-0.98C119.06,92.88,118.91,79.22,110.23,71.06z"/>
			<path class="st1" d="M206.35,71.06c-8.38-7.89-21.76-7.07-29.9,1.07v0c-0.2,0.2-0.52,0.2-0.72,0l0,0
				c-8.14-8.14-21.52-8.97-29.9-1.07c-8.67,8.17-8.83,21.83-0.46,30.19l24.29,24.29c3.55,3.55,9.31,3.55,12.86,0l23.31-23.31
				l0.98-0.98C215.18,92.88,215.03,79.22,206.35,71.06z"/>
		</g>
		<path class="st1" d="M55.13,150.28c-4.77,0-8.23,4.66-6.72,9.19c11.08,33.37,42.54,57.44,79.63,57.44s68.55-24.07,79.63-57.44
			c1.5-4.53-1.95-9.19-6.72-9.19H55.13z"/>
	</g>
</g>
</svg>
