<svg xmlns="http://www.w3.org/2000/svg" width="29" height="28" fill="none"><path fill="url(#a)" d="M14.125 28c7.732 0 14-6.268 14-14s-6.268-14-14-14-14 6.268-14 14 6.268 14 14 14Z"/><path fill="#F33" d="M6.164 16.41a.768.768 0 0 0-.734 1.004 9.165 9.165 0 0 0 17.392 0 .768.768 0 0 0-.734-1.004H6.164Z"/><path stroke="#2D2D2D" stroke-linecap="round" stroke-linejoin="round" stroke-width="2" d="m6.242 11.994 2.093-2.896 2.092 2.896M17.823 11.994l2.093-2.896 2.09 2.896"/><defs><linearGradient id="a" x1="3.569" x2="23.304" y1="3.92" y2="22.764" gradientUnits="userSpaceOnUse"><stop stop-color="#39E395"/><stop offset="1" stop-color="#42B5BA"/></linearGradient></defs></svg>