<svg xmlns="http://www.w3.org/2000/svg" width="22" height="18" fill="none"><path fill="#BBC7D3" d="M19.25 0H2.75A2.757 2.757 0 0 0 0 2.765v9.216a2.757 2.757 0 0 0 2.75 2.765h4.147c.295 0 .577.119.785.33l2.534 2.594c.43.44 1.137.44 1.568 0l2.534-2.593a1.1 1.1 0 0 1 .785-.331h4.147A2.757 2.757 0 0 0 22 11.981V2.765A2.757 2.757 0 0 0 19.25 0Zm-8.963 9.575H4.434a.747.747 0 0 1-.752-.684.732.732 0 0 1 .727-.783h5.85c.39 0 .729.295.753.685a.732.732 0 0 1-.727.782Zm7.324-3.69H4.436a.747.747 0 0 1-.752-.684.732.732 0 0 1 .727-.782h13.176c.388 0 .727.294.752.684a.732.732 0 0 1-.727.783Z"/></svg>