<svg xmlns="http://www.w3.org/2000/svg" xml:space="preserve" id="레이어_1" x="0" y="0" style="enable-background:new 0 0 261.35 256.41" version="1.1" viewBox="0 0 261.35 256.41"><style>.st1{fill:none;stroke:#333;stroke-width:15;stroke-linecap:round;stroke-linejoin:round;stroke-miterlimit:10}.st2{fill:#ff0031}</style><linearGradient id="SVGID_1_" x1="41.499" x2="226.876" y1="43.517" y2="219.567" gradientUnits="userSpaceOnUse"><stop offset="0" style="stop-color:#00e8d6"/><stop offset="1" style="stop-color:#5e87f2"/></linearGradient><circle cx="130.67" cy="128.2" r="128.2" style="fill:url(#SVGID_1_)"/><path d="M97.56 111.62c0-12.06-9.76-21.82-21.82-21.82" class="st1"/><path d="M53.93 111.62c0-12.06 9.76-21.82 21.82-21.82M206.96 111.62c0-12.06-9.76-21.82-21.82-21.82" class="st1"/><path d="M163.33 111.62c0-12.06 9.76-21.82 21.82-21.82M65.93 165.27c16.05 16.41 39.11 26.71 64.74 26.71s48.69-10.29 64.74-26.71" class="st1"/><path d="M67.14 14.91c-8.38-7.89-21.76-7.07-29.9 1.07-.2.2-.52.2-.72 0C28.38 7.84 15 7.01 6.62 14.91c-8.67 8.17-8.82 21.83-.46 30.19l24.29 24.3c3.55 3.55 9.31 3.55 12.86 0l23.31-23.31.98-.98c8.37-8.37 8.21-22.03-.46-30.2zM254.72 14.91c-8.38-7.89-21.76-7.07-29.9 1.07-.2.2-.52.2-.72 0-8.14-8.14-21.52-8.97-29.9-1.07-8.67 8.17-8.83 21.83-.46 30.19l24.29 24.29c3.55 3.55 9.31 3.55 12.86 0l23.31-23.31.98-.98c8.37-8.36 8.22-22.02-.46-30.19z" class="st2"/></svg>