<?xml version="1.0" encoding="utf-8"?>
<!-- Generator: Adobe Illustrator 27.7.0, SVG Export Plug-In . SVG Version: 6.00 Build 0)  -->
<svg version="1.1" id="레이어_1" xmlns="http://www.w3.org/2000/svg" xmlns:xlink="http://www.w3.org/1999/xlink" x="0px"
	 y="0px" viewBox="0 0 261.35 256.41" style="enable-background:new 0 0 261.35 256.41;" xml:space="preserve">
<style type="text/css">
	.st0{fill:url(#SVGID_1_);}
	.st1{fill:none;stroke:#333333;stroke-width:15;stroke-linecap:round;stroke-linejoin:round;stroke-miterlimit:10;}
	.st2{fill:#FF0031;}
</style>
<g>
	<g>
		<linearGradient id="SVGID_1_" gradientUnits="userSpaceOnUse" x1="41.4993" y1="43.517" x2="226.8761" y2="219.5667">
			<stop  offset="0" style="stop-color:#00E8D6"/>
			<stop  offset="1" style="stop-color:#5E87F2"/>
		</linearGradient>
		<circle class="st0" cx="130.67" cy="128.2" r="128.2"/>
		<g>
			<path class="st1" d="M97.56,111.62c0-12.06-9.76-21.82-21.82-21.82"/>
			<path class="st1" d="M53.93,111.62c0-12.06,9.76-21.82,21.82-21.82"/>
		</g>
		<g>
			<path class="st1" d="M206.96,111.62c0-12.06-9.76-21.82-21.82-21.82"/>
			<path class="st1" d="M163.33,111.62c0-12.06,9.76-21.82,21.82-21.82"/>
		</g>
		<path class="st1" d="M65.93,165.27c16.05,16.41,39.11,26.71,64.74,26.71s48.69-10.29,64.74-26.71"/>
	</g>
	<path class="st2" d="M67.14,14.91c-8.38-7.89-21.76-7.07-29.9,1.07l0,0c-0.2,0.2-0.52,0.2-0.72,0l0,0
		c-8.14-8.14-21.52-8.97-29.9-1.07C-2.05,23.08-2.2,36.74,6.16,45.1L30.45,69.4c3.55,3.55,9.31,3.55,12.86,0l23.31-23.31l0.98-0.98
		C75.97,36.74,75.81,23.08,67.14,14.91z"/>
	<path class="st2" d="M254.72,14.91c-8.38-7.89-21.76-7.07-29.9,1.07v0c-0.2,0.2-0.52,0.2-0.72,0l0,0
		c-8.14-8.14-21.52-8.97-29.9-1.07c-8.67,8.17-8.83,21.83-0.46,30.19l24.29,24.29c3.55,3.55,9.31,3.55,12.86,0l23.31-23.31
		l0.98-0.98C263.55,36.74,263.4,23.08,254.72,14.91z"/>
</g>
</svg>
