<svg xmlns="http://www.w3.org/2000/svg" width="16" height="20" fill="none"><path fill="url(#a)" d="M3.78 17.684C3.78 18.963 4.883 20 6.242 20h3.446c1.359 0 2.461-1.037 2.461-2.316v-1.268c0-.252-.217-.457-.486-.457H4.266c-.268 0-.486.205-.486.457v1.268Z"/><path fill="url(#b)" d="M8 0C3.581 0 0 3.37 0 7.527c0 2.092.97 3.447 3.05 6.286.077.104.161.202.23.308.268.41.746.654 1.257.654h2.632v-3.043c-.885-.278-1.56-1.012-1.695-1.904a2.3 2.3 0 0 1-.024-.397c.01-.38.35-.678.752-.678h.102c.423 0 .746.331.742.73v.008c0 .484.423.874.94.86.49-.012.895-.408.888-.872-.002-.127-.036-.243.294-.535a.79.79 0 0 1 .523-.191c.426 0 .777.328.778.73v.01c0 1.044-.72 1.93-1.72 2.24v3.043h2.6c.517 0 1.005-.245 1.265-.664.078-.124.165-.244.261-.358C15.238 10.522 16 9.502 16 7.528 15.999 3.37 12.417 0 8 0Z"/><defs><linearGradient id="a" x1="11.364" x2="9.289" y1="19.192" y2="14.396" gradientUnits="userSpaceOnUse"><stop stop-color="#FFCC17"/><stop offset="1" stop-color="#FFE37F"/></linearGradient><linearGradient id="b" x1="14.5" x2="4.274" y1="11.821" y2="-.537" gradientUnits="userSpaceOnUse"><stop stop-color="#FFCC17"/><stop offset="1" stop-color="#FFE37F"/></linearGradient></defs></svg>