<svg xmlns="http://www.w3.org/2000/svg" width="18" height="18" fill="none"><path fill="#BBC7D3" d="M14.662 11.309c-.884 0-1.688.344-2.285.906L6.662 9.307a3.467 3.467 0 0 0-.006-.717l5.647-2.874a3.326 3.326 0 0 0 2.358.977A3.343 3.343 0 0 0 18 3.347 3.343 3.343 0 0 0 14.662 0a3.343 3.343 0 0 0-3.322 3.69L5.669 6.574a3.322 3.322 0 0 0-2.328-.948A3.343 3.343 0 0 0 0 8.973a3.343 3.343 0 0 0 3.34 3.346c.923 0 1.76-.377 2.364-.984l5.648 2.874A3.343 3.343 0 0 0 14.66 18 3.343 3.343 0 0 0 18 14.654a3.343 3.343 0 0 0-3.34-3.346h.002Z"/></svg>