<svg xmlns="http://www.w3.org/2000/svg" width="30" height="36" fill="none"><path fill="#05D9F5" d="M25.2 4.317a14.715 14.715 0 0 0-11.14-4.3c-3.54.17-7.04 1.6-9.74 4.31-5.76 5.76-5.76 15.11 0 20.88l10.44 10.44 10.44-10.44c5.76-5.76 5.76-15.11 0-20.88v-.01Z"/><path stroke="#fff" stroke-linecap="round" stroke-miterlimit="10" stroke-width=".6" d="M18.456 5C20.46 5.304 22 7.028 22 9.105a4.12 4.12 0 0 1-.745 2.37M15.444 5.696a4.191 4.191 0 0 1 1.732-.691"/><path stroke="#fff" stroke-miterlimit="10" stroke-width=".6" d="M20.113 12.585a4.174 4.174 0 0 1-2.289.679c-2.305 0-4.176-1.861-4.176-4.155 0-.829.243-1.603.666-2.249M21.233 11.462l-5.704-5.676a.797.797 0 0 0-1.123-.002.787.787 0 0 0 .001 1.118l5.705 5.676c.31.309.813.31 1.122.001a.787.787 0 0 0-.001-1.117Z"/><path stroke="#fff" stroke-linecap="round" stroke-miterlimit="10" stroke-width=".6" d="m13.79 16.22 3.679-2.972M13.67 9.48l-7.44 9.23 2.025 1.977 4.239-3.422M7.054 17.68l2.21 2.199"/><path stroke="#fff" stroke-linecap="round" stroke-miterlimit="10" stroke-width=".6" d="m14.568 13.303-.962-.957L11.34 14.6l.962.957 2.266-2.255ZM12.494 13.455l.958.958M7.213 19.668c-.966.841-1.422 1.87-1.121 2.606.042.1.21.512.552.587.67.146 1.05-1.199 1.908-1.353 1.1-.195 1.553 1.799 3.042 2.352 2.649.983 6.1-3.567 7.176-2.793.293.212.452.845-.176 2.731"/></svg>