<svg width="30" height="36" viewBox="0 0 30 36" fill="none" xmlns="http://www.w3.org/2000/svg">
<path d="M25.2 4.31671C22.14 1.25671 18.07 -0.173289 14.06 0.0167109C10.52 0.186711 7.02 1.61671 4.32 4.32671C-1.44 10.0867 -1.44 19.4367 4.32 25.2067L14.76 35.6467L25.2 25.2067C30.96 19.4467 30.96 10.0967 25.2 4.32671V4.31671Z" fill="#FF0000"/>
<path d="M13.8187 6.02843C11.9238 6.21893 10.4402 6.66007 9.06204 7.44209C8.07766 7.99352 7.36398 8.6402 6.80148 9.46734C6.42179 10.0338 6.26359 10.3897 6.09835 11.0414L6.01398 11.3673L6.00343 14.8062C5.99288 18.4807 5.9964 18.5609 6.16867 19.2126C6.44992 20.2804 7.37453 21.4684 8.51008 22.2204C9.8636 23.1177 11.3261 23.6441 13.2035 23.9098C14.0613 24.0301 15.9316 24.0301 16.7894 23.9098C19.7074 23.4937 21.975 22.3106 23.1703 20.5711C23.5992 19.9495 23.8348 19.353 23.9473 18.611C24.0176 18.1348 24.0176 11.8686 23.9473 11.3923C23.8734 10.9061 23.7715 10.5501 23.5852 10.1491C22.6219 8.07373 20.0941 6.55981 16.8246 6.10363C16.1777 6.00838 14.4164 5.96828 13.8187 6.02843ZM16.1039 7.53233C18.1605 7.74287 19.7777 8.27425 21.068 9.17158C22.2422 9.98368 22.9418 11.0364 22.9418 11.9939C22.9418 12.5052 22.7062 13.1318 22.323 13.6432C21.9398 14.1545 21.982 14.1445 21.5988 13.8687C20.5125 13.0917 18.948 12.4802 17.2992 12.1944C14.121 11.648 10.5632 12.3147 8.39407 13.8687C8.01086 14.1445 8.05305 14.1545 7.66984 13.6432C7.39211 13.2722 7.20226 12.8762 7.11437 12.4852C7.03351 12.1092 7.03351 11.8786 7.11437 11.5076C7.50812 9.70295 9.97259 8.09378 13.0453 7.63259C14.0261 7.4822 15.239 7.44711 16.1039 7.53233ZM16.1214 13.5479C17.4433 13.6783 18.5472 13.9439 19.6195 14.3851C20.1398 14.6006 20.8219 14.9716 20.7726 15.0167C20.7515 15.0368 20.5441 15.1521 20.3051 15.2774C17.6648 16.686 13.9031 16.8966 10.8445 15.7987C10.4367 15.6584 9.64915 15.2824 9.33977 15.0919L9.17805 14.9917L9.56478 14.7761C11.2699 13.8186 13.8925 13.3324 16.1214 13.5479ZM7.58195 15.4478C8.89329 16.7462 10.8585 17.5733 13.4496 17.9192C14.0578 17.9995 15.9281 17.9944 16.5433 17.9142C19.0992 17.5784 21.0398 16.7713 22.3617 15.493C22.5551 15.3075 22.766 15.0919 22.8293 15.0217L22.9418 14.8864V16.5507C22.9418 18.0947 22.9383 18.2351 22.868 18.5208C22.4496 20.3004 20.0871 21.8645 17.0882 22.3457C15.6539 22.5763 14.339 22.5763 12.9046 22.3457C9.90579 21.8645 7.54328 20.3004 7.12492 18.5208C7.05461 18.2351 7.05109 18.0947 7.05109 16.5507V14.8864L7.16711 15.0167C7.22687 15.0919 7.41672 15.2824 7.58195 15.4478Z" fill="white"/>
<path d="M8.5101 17.7689C8.15502 17.8792 7.98979 18.5259 8.21479 18.9319C8.34487 19.1726 8.99878 19.5786 9.89878 19.9847C10.6968 20.3456 11.5687 20.6113 12.5039 20.7867C12.9855 20.877 13.1121 20.8419 13.2703 20.5912C13.4425 20.3105 13.4566 19.9596 13.3054 19.6538C13.1965 19.4382 13.0769 19.3731 12.6023 19.2879C11.3507 19.0573 9.76167 18.4457 9.02339 17.9143C8.82299 17.7689 8.66479 17.7238 8.5101 17.7689Z" fill="white"/>
<path d="M21.1593 17.809C21.0679 17.8592 20.7972 18.0146 20.5581 18.1549C19.7812 18.6211 18.4663 19.0923 17.3905 19.2879C16.9159 19.3731 16.7964 19.4382 16.6874 19.6538C16.5362 19.9596 16.5503 20.3105 16.7226 20.5912C16.8808 20.8419 17.0073 20.877 17.489 20.7867C18.7335 20.5561 19.9605 20.12 20.9484 19.5586C21.655 19.1575 21.8273 18.9821 21.873 18.6261C21.9503 18.0446 21.5636 17.5985 21.1593 17.809Z" fill="white"/>
<path d="M14.7433 19.6187C14.5922 19.729 14.4691 20.0248 14.4691 20.2654C14.4691 20.516 14.5922 20.8018 14.7504 20.9171C14.8242 20.9722 14.9367 21.0173 14.9965 21.0173C15.2637 21.0173 15.5238 20.6464 15.5238 20.2654C15.5238 20.0147 15.4008 19.729 15.2426 19.6137C15.0703 19.4884 14.9121 19.4884 14.7433 19.6187Z" fill="white"/>
</svg>
