<svg width="30" height="36" viewBox="0 0 30 36" fill="none" xmlns="http://www.w3.org/2000/svg">
<path d="M25.2 4.31671C22.14 1.25671 18.07 -0.173289 14.06 0.0167109C10.52 0.186711 7.02 1.61671 4.32 4.32671C-1.44 10.0867 -1.44 19.4367 4.32 25.2067L14.76 35.6467L25.2 25.2067C30.96 19.4467 30.96 10.0967 25.2 4.32671V4.31671Z" fill="#FF75C0"/>
<path d="M6.36558 7.55313C6.12808 7.79063 6.14292 8.19141 6.38042 8.38438C6.48433 8.47344 6.92964 8.5625 7.36011 8.59219C8.14683 8.63672 8.16167 8.65156 8.36949 9.23047C8.48824 9.55703 8.94839 11.4867 9.40855 13.5352C9.85386 15.5688 10.2843 17.3648 10.3734 17.5133C10.4476 17.6617 10.7296 17.9141 10.982 18.0625C11.4273 18.3297 11.7539 18.3594 15.3609 18.3594C19.6507 18.3594 20.096 18.2852 20.482 17.5133C20.6007 17.2906 21.0164 15.6875 21.4023 13.9656C22.0554 10.9969 22.0851 10.8039 21.8773 10.2992C21.4171 9.23047 21.4914 9.24531 15.1828 9.15625L9.55699 9.08203L9.31949 8.41406C9.18589 8.04297 9.02261 7.65703 8.96324 7.55313C8.79995 7.31563 6.60308 7.31563 6.36558 7.55313ZM20.7343 10.5516C20.8679 10.7297 20.7789 11.368 20.2742 13.6391C19.9328 15.2125 19.5617 16.6523 19.4429 16.8305C19.25 17.1719 19.2203 17.1719 15.3906 17.1719H11.5312L11.3828 16.8305C11.2789 16.5781 9.89839 10.6109 9.89839 10.3883C9.89839 10.3586 12.2882 10.3438 15.2273 10.3438C19.6804 10.3438 20.571 10.3734 20.7343 10.5516Z" fill="white"/>
<path d="M11.7094 19.2055C10.1062 19.9922 10.7891 22.5156 12.6 22.5156C13.1492 22.5156 13.9062 21.9664 14.1586 21.3578C14.4703 20.6156 14.1883 19.7695 13.4758 19.2945C12.882 18.8938 12.3922 18.8641 11.7094 19.2055ZM13.0156 20.3633C13.2383 20.6305 13.1641 21.0313 12.8375 21.2391C12.318 21.5656 11.7391 20.8383 12.125 20.3633C12.3625 20.0813 12.7781 20.0813 13.0156 20.3633Z" fill="white"/>
<path d="M17.6469 19.2055C16.0437 19.9922 16.7266 22.5156 18.5375 22.5156C19.0867 22.5156 19.8438 21.9664 20.0961 21.3578C20.4078 20.6156 20.1258 19.7695 19.4133 19.2945C18.8195 18.8938 18.3297 18.8641 17.6469 19.2055ZM18.9531 20.3633C19.1758 20.6305 19.1016 21.0313 18.775 21.2391C18.2555 21.5656 17.6766 20.8383 18.0625 20.3633C18.3 20.0813 18.7156 20.0813 18.9531 20.3633Z" fill="white"/>
</svg>
