<svg xmlns="http://www.w3.org/2000/svg" width="30" height="36" fill="none"><path fill="#FF75C0" d="M25.2 4.317a14.715 14.715 0 0 0-11.14-4.3c-3.54.17-7.04 1.6-9.74 4.31-5.76 5.76-5.76 15.11 0 20.88l10.44 10.44 10.44-10.44c5.76-5.76 5.76-15.11 0-20.88v-.01Z"/><path fill="#fff" d="M5.438 7.688c-.25.25-.235.671.015.875.11.093.578.187 1.031.218.829.047.844.063 1.063.672.125.344.61 2.375 1.094 4.531.468 2.141.921 4.032 1.015 4.188.078.156.375.422.64.578.47.281.813.313 4.61.313 4.516 0 4.985-.079 5.39-.891.126-.235.563-1.922.97-3.735.687-3.124.718-3.328.5-3.859-.485-1.125-.407-1.11-7.047-1.203l-5.922-.078-.25-.703a8.634 8.634 0 0 0-.375-.906c-.172-.25-2.485-.25-2.735 0Zm15.125 3.156c.14.187.046.86-.485 3.25-.36 1.656-.75 3.172-.875 3.36-.203.358-.234.358-4.265.358h-4.063l-.156-.359c-.11-.265-1.563-6.547-1.563-6.781 0-.031 2.516-.047 5.61-.047 4.687 0 5.625.031 5.796.219ZM11.063 19.953c-1.688.828-.97 3.485.937 3.485.578 0 1.375-.579 1.64-1.22.329-.78.032-1.671-.718-2.171-.625-.422-1.14-.453-1.86-.094Zm1.374 1.219c.235.281.157.703-.187.922-.547.343-1.156-.422-.75-.922a.605.605 0 0 1 .938 0ZM17.313 19.953c-1.688.828-.97 3.485.937 3.485.578 0 1.375-.579 1.64-1.22.329-.78.032-1.671-.718-2.171-.625-.422-1.14-.453-1.86-.094Zm1.375 1.219c.234.281.156.703-.188.922-.547.343-1.156-.422-.75-.922a.605.605 0 0 1 .938 0Z"/></svg>