<svg xmlns="http://www.w3.org/2000/svg" width="30" height="36" fill="none"><path fill="#2E3666" d="M25.2 4.317a14.715 14.715 0 0 0-11.14-4.3c-3.54.17-7.04 1.6-9.74 4.31-5.76 5.76-5.76 15.11 0 20.88l10.44 10.44 10.44-10.44c5.76-5.76 5.76-15.11 0-20.88v-.01Z"/><path stroke="#fff" stroke-miterlimit="10" stroke-width=".6" d="M15.491 19.178a7.093 7.093 0 0 0 3.952-.223c1.94-.692 3.384-2.312 4.026-4.26.282-.857.506-1.9.529-3.1A10.8 10.8 0 0 0 22.545 6a6.682 6.682 0 0 1-3.728 5.483c.313-.47.835-1.408.962-2.697a5.93 5.93 0 0 0-.181-2.136 5.942 5.942 0 0 1-1.472 1.94c-1.843 1.57-3.678 1.004-5.161 2.227-.696.574-1.503 1.697-1.619 4.129"/><path stroke="#fff" stroke-linecap="round" stroke-miterlimit="10" stroke-width=".6" d="m8.947 18.998 4.802-4.783a1.44 1.44 0 0 1 .915-.431 2.063 2.063 0 0 1 1.573.558c.417.396.641.946.637 1.504 0 .404-.212.778-.521 1.04l-.707.603c-2.403 2.047-4.802 4.098-7.205 6.145-.398.339-.954.466-1.445.281a1.617 1.617 0 0 1-.734-.55c-.425-.57-.313-1.374.19-1.878l1.734-1.727"/><path stroke="#fff" stroke-miterlimit="10" stroke-width=".6" d="M16.353 16.885a3.216 3.216 0 0 1-2.264-.096 3.186 3.186 0 0 1-1.518-1.4M11.435 16.608a3.954 3.954 0 0 0 1.893 2.855"/></svg>