<svg xmlns="http://www.w3.org/2000/svg" width="17" height="20" fill="none"><path fill="url(#a)" d="M14.483 2.577C11.149-.838 5.767-.862 2.463 2.523c-3.225 3.304-3.28 8.634-.182 12.063l.018.019c.07.077.142.155.216.231l.079.079 4.116 4.314a2.458 2.458 0 0 0 3.555.021l3.977-4.073a8.435 8.435 0 0 0 .574-.588l.003-.004c3.018-3.403 2.901-8.694-.335-12.009l-.001.001Zm-5.81 9.177c-1.988.103-3.621-1.57-3.52-3.607.087-1.744 1.469-3.16 3.172-3.249 1.988-.103 3.621 1.57 3.52 3.607-.086 1.744-1.469 3.16-3.171 3.249Z"/><defs><linearGradient id="a" x1="15" x2="2.5" y1="14" y2="4.5" gradientUnits="userSpaceOnUse"><stop stop-color="#1C47C2"/><stop offset="1" stop-color="#2C6BFC"/></linearGradient></defs></svg>