<svg width="30" height="36" viewBox="0 0 30 36" fill="none" xmlns="http://www.w3.org/2000/svg">
<path d="M25.2 4.31671C22.14 1.25671 18.07 -0.173289 14.06 0.0167109C10.52 0.186711 7.02 1.61671 4.32 4.32671C-1.44 10.0867 -1.44 19.4367 4.32 25.2067L14.76 35.6467L25.2 25.2067C30.96 19.4467 30.96 10.0967 25.2 4.32671V4.31671Z" fill="#05D9F5"/>
<g clip-path="url(#clip0_165_15)">
<path d="M17.5116 6.11331C17.2296 6.20237 16.9327 6.33597 16.8585 6.41018C16.7694 6.4844 16.5022 6.54378 16.2499 6.54378C15.6858 6.54378 15.0921 7.10784 15.0475 7.70159C15.0327 7.92425 14.9139 8.33987 14.7803 8.63675C14.6616 8.93362 14.5132 9.52737 14.4538 9.95784C14.3499 10.7297 14.2311 10.893 10.8616 14.9899C8.94675 17.3203 7.34362 19.3094 7.31393 19.4282C7.2694 19.5321 7.41784 19.8141 7.6405 20.0516L8.05612 20.4821L7.52175 21.3727C6.88347 22.3969 6.83893 22.9016 7.34362 23.3914C7.90768 23.9703 8.39753 23.8813 9.13972 23.0797C9.94128 22.2039 10.2827 22.2485 11.1139 23.3766C12.1975 24.8461 13.3999 25.2617 14.8249 24.6383C15.2553 24.4602 16.2796 23.8219 17.1108 23.2133C18.6249 22.1149 19.0999 21.8774 19.5303 22.0407C19.7233 22.1149 19.753 22.2633 19.6788 22.7383C19.6194 23.0797 19.471 23.5547 19.3522 23.7922C19.0999 24.2821 19.1741 24.6977 19.5007 24.5641C19.6936 24.4899 20.0647 23.6438 20.2428 22.8422C20.3616 22.3227 20.1389 21.7438 19.7233 21.536C19.1741 21.2242 18.4764 21.5063 16.8882 22.6789C15.1663 23.9407 14.3944 24.3414 13.6819 24.3563C12.9694 24.3563 12.6428 24.1633 11.5741 23.0055C10.8913 22.2782 10.4757 21.9516 10.1194 21.8922C9.67409 21.8032 9.57018 21.8625 8.96159 22.486C7.78893 23.718 7.09128 23.0797 8.01159 21.625L8.47175 20.8977L8.88737 21.2985C9.11003 21.5063 9.36237 21.6844 9.46628 21.6844C9.70378 21.6844 14.0085 18.1219 14.0678 17.8844C14.1866 17.4094 13.5335 17.7508 12.0936 18.9383C11.2475 19.636 10.5053 20.2 10.4311 20.2C10.2827 20.2 8.75378 18.686 8.75378 18.5375C8.75378 18.4188 14.3944 11.5313 14.528 11.4719C14.5874 11.4571 14.721 11.6797 14.8249 11.9914C15.0772 12.6891 16.2647 13.8766 16.9624 14.1289C17.2592 14.2328 17.5116 14.3664 17.5116 14.411C17.5116 14.4703 16.9178 14.9899 16.2053 15.5688C15.4928 16.1477 14.7803 16.7563 14.6319 16.9196C14.3796 17.1867 14.3796 17.2313 14.5874 17.3203C14.7507 17.3797 15.3889 16.9492 16.5467 15.9992C18.1499 14.7078 18.328 14.5891 19.085 14.5C19.5452 14.4555 20.1538 14.2922 20.4507 14.1438C20.7475 13.9953 21.1186 13.8914 21.2671 13.936C21.6233 14.0102 22.41 13.268 22.41 12.8672C22.41 12.6891 22.5436 12.1844 22.7217 11.7391C23.2858 10.2844 22.9592 8.59222 21.8905 7.31565C21.4452 6.78128 19.9905 6.02425 19.6639 6.15784C19.2928 6.29144 19.4116 6.51409 19.946 6.69221C20.6585 6.91487 21.8014 7.98362 22.128 8.69612C22.4546 9.39378 22.4991 10.8039 22.2319 11.5461C22.128 11.8133 22.0092 12.036 21.9647 12.036C21.9202 12.036 20.7624 10.9078 19.3819 9.52737C17.0069 7.15237 16.903 7.01878 17.1999 6.84065C17.378 6.75159 17.8085 6.63284 18.1499 6.57347C18.5507 6.49925 18.7733 6.3805 18.7733 6.2469C18.7733 5.97972 18.2092 5.92034 17.5116 6.11331ZM19.1147 10.0024C21.9796 12.8672 21.9796 12.8672 21.6678 13.1492C21.3561 13.4313 21.3561 13.4164 19.5452 11.6203C17.9866 10.0617 17.2147 9.49768 17.2147 9.91331C17.2147 9.97268 17.9569 10.7742 18.8624 11.6797C19.7678 12.6 20.4803 13.4164 20.421 13.5055C20.2874 13.7133 19.3522 13.9657 18.6842 13.9657C16.9772 13.9657 15.3296 12.511 15.0475 10.7446C14.9436 10.0914 15.2108 8.68128 15.4632 8.53284C15.5374 8.47346 15.8639 8.69612 16.1905 9.00784C16.6803 9.48284 16.7694 9.52737 16.8585 9.30472C16.9327 9.11175 16.7546 8.84456 16.2499 8.32503C15.6413 7.70159 15.5671 7.568 15.7303 7.36018C15.8342 7.24143 15.9975 7.13753 16.0866 7.13753C16.1757 7.13753 17.5413 8.42893 19.1147 10.0024ZM9.19909 19.8438C9.98581 20.6305 10.0007 20.675 9.71862 20.8828C9.45143 21.0758 9.37722 21.0313 8.66472 20.3336C7.99675 19.6657 7.90768 19.5321 8.05612 19.2946C8.16003 19.1313 8.26393 19.0125 8.30847 19.0125C8.353 19.0125 8.75378 19.3836 9.19909 19.8438Z" fill="white"/>
<path d="M13.4593 14.2329C12.8358 14.8563 12.3163 15.4501 12.3163 15.5391C12.3163 15.7321 13.2514 16.6376 13.4444 16.6376C13.5186 16.6376 14.1124 16.1032 14.7655 15.4501L15.9382 14.2626L15.3593 13.6688C15.0475 13.3423 14.7358 13.0751 14.6913 13.0751C14.6468 13.0751 14.0975 13.5946 13.4593 14.2329ZM14.9882 14.0399C15.1366 14.2329 15.1218 14.3219 14.9139 14.5594C14.6616 14.8415 14.6319 14.8415 14.3647 14.604C14.1124 14.3813 14.1124 14.3516 14.335 14.0844C14.6468 13.7579 14.7507 13.7579 14.9882 14.0399ZM13.9491 15.0938C14.1124 15.2868 14.0975 15.3759 13.8303 15.643C13.5186 15.9399 13.4889 15.9399 13.2514 15.7024C13.0139 15.4798 13.0139 15.4352 13.2811 15.1532C13.6077 14.7969 13.7116 14.7821 13.9491 15.0938Z" fill="white"/>
</g>
<defs>
<clipPath id="clip0_165_15">
<rect width="19" height="19" fill="white" transform="translate(5 5)"/>
</clipPath>
</defs>
</svg>
