<svg width="30" height="36" viewBox="0 0 30 36" fill="none" xmlns="http://www.w3.org/2000/svg">
<path d="M25.2 4.31671C22.14 1.25671 18.07 -0.173289 14.06 0.0167109C10.52 0.186711 7.02 1.61671 4.32 4.32671C-1.44 10.0867 -1.44 19.4367 4.32 25.2067L14.76 35.6467L25.2 25.2067C30.96 19.4467 30.96 10.0967 25.2 4.32671V4.31671Z" fill="#F6A60A"/>
<path d="M13.863 4.18999C13.5899 4.32002 13.112 4.6234 12.8219 4.88345C11.9344 5.66359 6.55818 13.0099 6.01202 14.1801C5.5512 15.1769 5.5 15.502 5.5 17.0406C5.5 18.5575 5.56827 18.9259 6.01202 19.9445C6.2851 20.5729 6.78005 21.3747 7.10433 21.7214C8.19664 22.8483 8.86227 23 12.9414 23H16.645L20.5534 18.3408C22.6868 15.762 24.4618 13.53 24.496 13.3566C24.5472 13.0749 24.1375 13.0316 21.8164 13.0316C20.2974 13.0316 19.0685 13.0099 19.0685 12.9666C19.0685 12.9449 19.188 12.5331 19.3245 12.0564C19.683 10.7562 19.6488 8.56744 19.2221 7.39723C18.7955 6.18368 17.9933 5.12183 17.1058 4.53672C16.3207 4.01663 14.5969 3.82159 13.863 4.18999ZM16.7986 5.33853C18.164 6.20535 18.8979 7.83064 18.8979 9.95435C18.8808 11.9047 18.4541 12.8365 16.2866 15.502L14.375 17.8424L14.2555 16.7372C13.8971 13.6383 12.1051 11.4496 9.90338 11.4279C9.30602 11.4063 8.82813 11.3629 8.82813 11.2979C8.82813 11.2329 9.85217 9.86767 11.0981 8.24238C12.6854 6.16201 13.5217 5.23018 13.9483 5.07848C14.9724 4.66674 15.8769 4.75343 16.7986 5.33853ZM11.1322 12.5765C12.0539 13.0966 13.1632 14.7435 13.4363 15.9571C14.1361 19.0993 11.7979 22.1332 9.5791 20.9413C7.88943 20.0528 7.05313 17.7341 7.70169 15.762C8.41852 13.595 10.9786 13.5517 11.7808 15.697C12.6342 17.9724 11.4394 20.0311 9.80097 19.0776C9.32309 18.7959 8.82813 17.8207 8.82813 17.1273C8.82813 16.5422 9.28895 15.8487 9.66443 15.8487C10.1082 15.8487 10.6714 16.4555 10.7397 16.9756C10.8079 17.539 11.1834 17.7341 11.32 17.279C11.4906 16.7372 11.0469 15.632 10.5178 15.307C9.42549 14.5702 8.36731 15.2853 8.21371 16.8239C7.99183 19.0776 9.98871 20.898 11.5589 19.9011C12.9755 18.991 13.1632 16.1304 11.9344 14.4835C11.2688 13.595 10.6714 13.2483 9.74977 13.2483C8.75986 13.2483 7.85529 13.855 7.29207 14.9169C6.95072 15.567 6.86539 15.9788 6.86539 17.1273C6.86539 19.381 7.82116 21.0713 9.49376 21.8298C10.2277 22.1765 9.71563 22.2415 8.82813 21.9165C7.94063 21.6131 6.96779 20.4645 6.50697 19.2293C5.00505 15.1553 8.0601 10.7995 11.1322 12.5765ZM22.2943 15.0469C21.7652 15.6754 20.2121 17.5174 18.8637 19.1426L16.389 22.1332L13.6753 22.1115C11.4565 22.0898 11.081 22.0465 11.6442 21.8731C12.2075 21.6781 12.8902 20.9196 15.3991 17.7774L18.4712 13.8984L20.8606 13.9201H23.25L22.2943 15.0469Z" fill="white"/>
</svg>
