<svg xmlns="http://www.w3.org/2000/svg" width="30" height="36" fill="none"><path fill="#F6A60A" d="M25.2 4.317a14.715 14.715 0 0 0-11.14-4.3c-3.54.17-7.04 1.6-9.74 4.31-5.76 5.76-5.76 15.11 0 20.88l10.44 10.44 10.44-10.44c5.76-5.76 5.76-15.11 0-20.88v-.01Z"/><path fill="#fff" d="M14.454 6.17a6.1 6.1 0 0 0-1.15.62c-.982.698-6.924 7.272-7.528 8.319-.27.469-.565 1.292-.565 2.559 0 1.086.075 1.687.565 2.598.302.562.85 1.28 1.208 1.59C8.19 22.864 8.927 23 13.435 23h4.094l4.32-4.169c2.357-2.307 4.32-4.304 4.357-4.46.057-.251-.396-.29-2.962-.29-1.678 0-3.037-.02-3.037-.058 0-.02.132-.388.283-.815.396-1.163.359-3.121-.113-4.168-.471-1.086-1.358-2.036-2.339-2.56-.868-.465-2.773-.64-3.584-.31Zm3.244 1.028c1.51.775 2.32 2.23 2.32 4.13-.018 1.745-.49 2.578-2.886 4.963l-2.112 2.094-.132-.989c-.396-2.772-2.377-4.73-4.81-4.75-.66-.02-1.189-.058-1.189-.116s1.132-1.28 2.509-2.734c1.754-1.862 2.679-2.695 3.15-2.831 1.132-.368 2.132-.29 3.15.233Zm-6.262 6.476c1.018.465 2.244 1.939 2.546 3.024.774 2.812-1.81 5.526-4.263 4.46-1.868-.795-2.792-2.87-2.075-4.634.792-1.939 3.622-1.978 4.508-.058.944 2.036-.377 3.878-2.188 3.024-.528-.252-1.075-1.124-1.075-1.744 0-.524.51-1.144.924-1.144.49 0 1.113.542 1.189 1.008.075.504.49.678.641.271.189-.485-.302-1.473-.886-1.764-1.208-.66-2.377-.02-2.547 1.357-.245 2.017 1.962 3.645 3.697 2.753 1.566-.814 1.773-3.373.415-4.847-.736-.795-1.396-1.105-2.414-1.105-1.094 0-2.094.543-2.717 1.493-.377.581-.471.95-.471 1.977 0 2.017 1.056 3.53 2.905 4.208.81.31.245.368-.736.078-.98-.272-2.056-1.3-2.565-2.405-1.66-3.645 1.716-7.542 5.112-5.952Zm12.337 2.21c-.585.562-2.302 2.21-3.792 3.665l-2.735 2.675-3-.019c-2.452-.02-2.867-.058-2.245-.213.623-.175 1.378-.853 4.15-3.665l3.396-3.47 2.641.019h2.641l-1.056 1.008Z"/></svg>