<svg xmlns="http://www.w3.org/2000/svg" width="30" height="36" fill="none"><path fill="#540096" d="M25.2 4.317a14.715 14.715 0 0 0-11.14-4.3c-3.54.17-7.04 1.6-9.74 4.31-5.76 5.76-5.76 15.11 0 20.88l10.44 10.44 10.44-10.44c5.76-5.76 5.76-15.11 0-20.88v-.01Z"/><path fill="#fff" d="M12.441 5.17c-3.525.805-6.485 3.798-7.229 7.313-1.428 6.717 4.582 12.735 11.29 11.305 4.522-.954 7.75-5.213 7.483-9.83-.238-3.992-2.797-7.283-6.65-8.564-1.264-.417-3.57-.522-4.894-.224Zm4.463.76c2.96.879 5.28 3.217 6.173 6.24.357 1.192.357 3.411 0 4.618a9.149 9.149 0 0 1-6.262 6.27c-1.205.357-3.422.357-4.612 0-3.064-.909-5.355-3.202-6.262-6.27-.357-1.207-.357-3.411 0-4.617 1.026-3.47 3.897-5.988 7.452-6.539.759-.104 2.663.045 3.51.298Z"/><path fill="#fff" d="M13.765 8.164c-1.145.194-1.636.402-1.636.7 0 .253.06.283.49.164.254-.06 1.131-.134 1.935-.15 1.472-.029 1.933-.163 1.562-.46-.224-.18-1.785-.343-2.35-.254ZM10.433 9.951c-.044.134-.09.834-.09 1.579 0 1.34 0 1.355.522 1.936.327.343.505.685.46.834-.03.134-.103 1.415-.163 2.83-.09 2.234-.074 2.621.134 2.934.312.477 1.145.506 1.592.06.297-.298.312-.402.208-2.95-.045-1.444-.134-2.74-.164-2.874-.044-.149.134-.491.461-.834.521-.58.521-.596.521-1.936 0-1.46-.074-1.817-.372-1.817-.297 0-.372.357-.372 1.742 0 1.207-.03 1.296-.446 1.788-.238.268-.446.61-.446.76 0 .133.074 1.384.149 2.77.089 1.37.119 2.636.074 2.785a.387.387 0 0 1-.744 0c-.045-.15-.015-1.415.075-2.785.074-1.386.148-2.637.148-2.77 0-.15-.193-.492-.446-.76-.417-.492-.446-.581-.446-1.788 0-1.385-.075-1.742-.372-1.742-.104 0-.238.104-.283.238Z"/><path fill="#fff" d="M11.49 9.802c-.06.06-.105.775-.105 1.579 0 1.325.03 1.474.268 1.43.223-.045.253-.239.253-1.52 0-1.37-.12-1.787-.417-1.489ZM12.352 9.892c-.045.119-.074.819-.045 1.549.045 1.132.09 1.325.313 1.37.238.045.253-.075.223-1.475-.03-1.057-.104-1.548-.223-1.593-.104-.03-.223.045-.268.149ZM15.937 10.19c-.893.893-1.011 2.949-.238 3.768.327.342.327.402.223 3.038-.09 2.368-.074 2.74.134 3.068.312.492 1.13.521 1.592.06.312-.313.312-.387.208-3.068-.104-2.696-.104-2.756.223-3.098 1.13-1.207.283-4.245-1.19-4.245-.342 0-.61.134-.952.477Zm1.28.282c.416.224.713 1.028.713 1.922 0 .625-.074.819-.446 1.221-.402.402-.446.551-.387 1.072.045.343.104 1.609.12 2.845l.044 2.234h-.744l.045-2.234c.015-1.236.074-2.502.119-2.845.06-.52.015-.67-.387-1.072-.372-.402-.446-.596-.446-1.221 0-.864.297-1.683.699-1.922.342-.193.297-.193.67 0ZM18.897 10.458c-.06.089.104.476.342.864.64.997.922 1.98.922 3.127 0 1.296-.297 2.234-1.04 3.322-.625.923-.685 1.102-.447 1.25.238.15 1.041-.804 1.502-1.802.566-1.176.744-2.308.58-3.53-.163-1.161-.327-1.578-.937-2.606-.446-.745-.729-.938-.922-.625ZM9.094 11.232c-.52.909-.684 1.385-.818 2.502-.163 1.266.015 2.339.55 3.486.477.997 1.28 1.95 1.518 1.802.238-.15.179-.328-.446-1.251-.818-1.207-1.086-2.175-1.012-3.664.045-.968.149-1.385.55-2.19.447-.908.506-1.31.164-1.31-.074 0-.297.283-.506.625ZM13.527 20.303c-.178.298.238.506.982.506s1.16-.208.982-.506c-.134-.209-1.83-.209-1.964 0Z"/></svg>