<svg width="30" height="36" viewBox="0 0 30 36" fill="none" xmlns="http://www.w3.org/2000/svg">
<path d="M25.2 4.31671C22.14 1.25671 18.07 -0.173289 14.06 0.0167109C10.52 0.186711 7.02 1.61671 4.32 4.32671C-1.44 10.0867 -1.44 19.4367 4.32 25.2067L14.76 35.6467L25.2 25.2067C30.96 19.4467 30.96 10.0967 25.2 4.32671V4.31671Z" fill="#540096"/>
<path d="M12.4414 5.17033C8.91594 5.97461 5.95578 8.96828 5.21202 12.4832C3.78401 19.2004 9.79358 25.2175 16.5023 23.7877C21.0243 22.8345 24.2522 18.5748 23.9845 13.9577C23.7465 9.96617 21.188 6.67462 17.3353 5.39374C16.0709 4.97671 13.7652 4.87246 12.4414 5.17033ZM16.9039 5.92992C19.8641 6.80866 22.1846 9.14701 23.0771 12.1705C23.4341 13.362 23.4341 15.5812 23.0771 16.7876C22.1846 19.8408 19.8641 22.1643 16.8147 23.0579C15.6098 23.4154 13.3934 23.4154 12.2034 23.0579C9.13907 22.1494 6.84829 19.8557 5.94091 16.7876C5.5839 15.5812 5.5839 13.3769 5.94091 12.1705C6.96729 8.70019 9.8382 6.18312 13.3934 5.63205C14.152 5.52779 16.056 5.67673 16.9039 5.92992Z" fill="white"/>
<path d="M13.7652 8.16405C12.6198 8.35767 12.1289 8.56618 12.1289 8.86406C12.1289 9.11726 12.1884 9.14704 12.6198 9.02789C12.8727 8.96832 13.7503 8.89385 14.5536 8.87895C16.0262 8.84916 16.4873 8.71512 16.1155 8.41724C15.8923 8.23851 14.3304 8.07468 13.7652 8.16405Z" fill="white"/>
<path d="M10.4332 9.95132C10.3886 10.0854 10.344 10.7854 10.344 11.5301C10.344 12.8705 10.344 12.8854 10.8646 13.4663C11.1919 13.8088 11.3704 14.1514 11.3258 14.3003C11.296 14.4344 11.2216 15.7153 11.1621 17.1302C11.0729 19.3643 11.0878 19.7515 11.296 20.0643C11.6084 20.5409 12.4414 20.5707 12.8876 20.1239C13.1852 19.826 13.2 19.7217 13.0959 17.1749C13.0513 15.7302 12.962 14.4344 12.9323 14.3003C12.8876 14.1514 13.0662 13.8088 13.3934 13.4663C13.914 12.8854 13.914 12.8705 13.914 11.5301C13.914 10.0705 13.8397 9.71302 13.5422 9.71302C13.2447 9.71302 13.1703 10.0705 13.1703 11.4556C13.1703 12.662 13.1405 12.7514 12.724 13.2429C12.486 13.511 12.2778 13.8535 12.2778 14.0025C12.2778 14.1365 12.3521 15.3876 12.4265 16.7727C12.5158 18.143 12.5455 19.4089 12.5009 19.5579C12.3819 19.9302 11.8761 19.9302 11.7571 19.5579C11.7125 19.4089 11.7423 18.143 11.8315 16.7727C11.9059 15.3876 11.9803 14.1365 11.9803 14.0025C11.9803 13.8535 11.7869 13.511 11.534 13.2429C11.1175 12.7514 11.0878 12.662 11.0878 11.4556C11.0878 10.0705 11.0134 9.71302 10.7159 9.71302C10.6117 9.71302 10.4779 9.81728 10.4332 9.95132Z" fill="white"/>
<path d="M11.4894 9.80228C11.4299 9.86186 11.3853 10.5768 11.3853 11.381C11.3853 12.7066 11.415 12.8555 11.653 12.8109C11.8761 12.7662 11.9059 12.5726 11.9059 11.2917C11.9059 9.92144 11.7869 9.50441 11.4894 9.80228Z" fill="white"/>
<path d="M12.3521 9.89166C12.3075 10.0108 12.2778 10.7108 12.3075 11.4406C12.3521 12.5726 12.3968 12.7662 12.6199 12.8109C12.8579 12.8555 12.8728 12.7364 12.843 11.3364C12.8133 10.2789 12.7389 9.7874 12.6199 9.74272C12.5158 9.71293 12.3968 9.7874 12.3521 9.89166Z" fill="white"/>
<path d="M15.9369 10.1896C15.0444 11.0832 14.9254 13.1386 15.6989 13.9577C16.0262 14.3003 16.0262 14.3599 15.9221 16.9961C15.8328 19.3642 15.8477 19.7366 16.0559 20.0642C16.3683 20.5557 17.1865 20.5855 17.6476 20.1238C17.96 19.811 17.96 19.7366 17.8558 17.0557C17.7517 14.3599 17.7517 14.3003 18.079 13.9577C19.2095 12.7513 18.3616 9.71298 16.889 9.71298C16.5468 9.71298 16.2791 9.84703 15.9369 10.1896ZM17.2162 10.4726C17.6327 10.696 17.9302 11.5002 17.9302 12.3939C17.9302 13.0194 17.8558 13.213 17.484 13.6152C17.0823 14.0173 17.0377 14.1663 17.0972 14.6875C17.1418 15.0301 17.2013 16.2961 17.2162 17.5323L17.2608 19.7664H16.889H16.5171L16.5617 17.5323C16.5766 16.2961 16.6361 15.0301 16.6807 14.6875C16.7402 14.1663 16.6956 14.0173 16.294 13.6152C15.9221 13.213 15.8477 13.0194 15.8477 12.3939C15.8477 11.53 16.1452 10.7109 16.5468 10.4726C16.889 10.279 16.8443 10.279 17.2162 10.4726Z" fill="white"/>
<path d="M18.8972 10.4577C18.8377 10.547 19.0013 10.9343 19.2393 11.3215C19.8789 12.3194 20.1615 13.3024 20.1615 14.4492C20.1615 15.745 19.864 16.6833 19.1203 17.7706C18.4955 18.694 18.436 18.8727 18.674 19.0217C18.912 19.1706 19.7153 18.2174 20.1764 17.2195C20.7417 16.0429 20.9202 14.911 20.7566 13.6897C20.5929 12.5279 20.4293 12.1109 19.8194 11.0832C19.3732 10.3385 19.0905 10.1449 18.8972 10.4577Z" fill="white"/>
<path d="M9.0944 11.2322C8.57377 12.1407 8.41014 12.6173 8.27626 13.7343C8.11264 15.0003 8.29114 16.0727 8.82665 17.2195C9.30265 18.2174 10.1059 19.1706 10.3439 19.0217C10.5819 18.8727 10.5224 18.694 9.89766 17.7706C9.07952 16.5642 8.81177 15.5961 8.88615 14.1067C8.93077 13.1386 9.0349 12.7216 9.43653 11.9173C9.88278 11.0088 9.94228 10.6066 9.60015 10.6066C9.52578 10.6066 9.30265 10.8896 9.0944 11.2322Z" fill="white"/>
<path d="M13.5272 20.3026C13.3487 20.6004 13.7652 20.809 14.509 20.809C15.2527 20.809 15.6692 20.6004 15.4907 20.3026C15.3568 20.0941 13.6611 20.0941 13.5272 20.3026Z" fill="white"/>
</svg>
