<svg xmlns="http://www.w3.org/2000/svg" width="30" height="36" fill="none"><path fill="red" d="M25.2 4.317a14.715 14.715 0 0 0-11.14-4.3c-3.54.17-7.04 1.6-9.74 4.31-5.76 5.76-5.76 15.11 0 20.88l10.44 10.44 10.44-10.44c5.76-5.76 5.76-15.11 0-20.88v-.01Z"/><path stroke="#fff" stroke-miterlimit="10" stroke-width=".8" d="M15 24c4.97 0 9-2.587 9-5.778 0-3.191-4.03-5.778-9-5.778s-9 2.587-9 5.778C6 21.413 10.03 24 15 24Z"/><path stroke="#fff" stroke-miterlimit="10" stroke-width=".8" d="M15 17.556c4.97 0 9-2.587 9-5.778C24 8.587 19.97 6 15 6s-9 2.587-9 5.778c0 3.191 4.03 5.778 9 5.778Z"/><path stroke="#fff" stroke-linecap="round" stroke-miterlimit="10" stroke-width=".8" d="M13.187 20.175c-2.125-.289-3.98-1.079-5.271-2.175M21.867 18.172c-1.276 1.003-3.036 1.722-5.042 1.997"/><path fill="#fff" d="M14.737 21.019a.5.5 0 1 0 0-1 .5.5 0 0 0 0 1Z"/><path stroke="#fff" stroke-miterlimit="10" stroke-width=".8" d="M6 18.222v-6.444M23.996 18.222v-6.444"/></svg>