<svg width="30" height="36" viewBox="0 0 30 36" fill="none" xmlns="http://www.w3.org/2000/svg">
<path d="M25.2 4.31671C22.14 1.25671 18.07 -0.173289 14.06 0.0167109C10.52 0.186711 7.02 1.61671 4.32 4.32671C-1.44 10.0867 -1.44 19.4367 4.32 25.2067L14.76 35.6467L25.2 25.2067C30.96 19.4467 30.96 10.0967 25.2 4.32671V4.31671Z" fill="#FF0000"/>
<path d="M15 24.0001C19.9706 24.0001 24 21.4131 24 18.222C24 15.0308 19.9706 12.4438 15 12.4438C10.0294 12.4438 6 15.0308 6 18.222C6 21.4131 10.0294 24.0001 15 24.0001Z" stroke="white" stroke-width="0.8" stroke-miterlimit="10"/>
<path d="M15 17.5562C19.9706 17.5562 24 14.9693 24 11.7781C24 8.58695 19.9706 6 15 6C10.0294 6 6 8.58695 6 11.7781C6 14.9693 10.0294 17.5562 15 17.5562Z" stroke="white" stroke-width="0.8" stroke-miterlimit="10"/>
<path d="M13.1869 20.1746C11.062 19.8861 9.20784 19.0962 7.91568 18" stroke="white" stroke-width="0.8" stroke-miterlimit="10" stroke-linecap="round"/>
<path d="M21.8669 18.1724C20.5912 19.1753 18.8314 19.8943 16.8254 20.1694" stroke="white" stroke-width="0.8" stroke-miterlimit="10" stroke-linecap="round"/>
<path d="M14.737 21.019C15.0132 21.019 15.237 20.7952 15.237 20.519C15.237 20.2429 15.0132 20.019 14.737 20.019C14.4609 20.019 14.237 20.2429 14.237 20.519C14.237 20.7952 14.4609 21.019 14.737 21.019Z" fill="white"/>
<path d="M6 18.2221V11.7783" stroke="white" stroke-width="0.8" stroke-miterlimit="10"/>
<path d="M23.9959 18.2221V11.7783" stroke="white" stroke-width="0.8" stroke-miterlimit="10"/>
</svg>
