<svg xmlns="http://www.w3.org/2000/svg" width="30" height="36" fill="none"><path fill="#009630" d="M25.2 4.317a14.715 14.715 0 0 0-11.14-4.3c-3.54.17-7.04 1.6-9.74 4.31-5.76 5.76-5.76 15.11 0 20.88l10.44 10.44 10.44-10.44c5.76-5.76 5.76-15.11 0-20.88v-.01Z"/><path fill="#fff" d="M18.6 24h-7.29a2.66 2.66 0 0 1-2.655-2.655V13.2c0-.27.18-.45.45-.45s.45.18.45.45v8.145c0 .99.81 1.755 1.755 1.755h7.29c.99 0 1.755-.81 1.755-1.755V13.2c0-.27.18-.45.45-.45s.45.18.45.45v8.145c0 1.44-1.215 2.655-2.655 2.655ZM20.985 8.205h-3.42A2.656 2.656 0 0 0 14.955 6a2.656 2.656 0 0 0-2.61 2.205h-3.42c-1.035 0-1.845.81-1.845 1.845s.81 1.8 1.845 1.8H21.03c1.035 0 1.845-.81 1.845-1.845s-.855-1.8-1.89-1.8ZM14.955 6.9c.81 0 1.485.54 1.665 1.305h-3.375c.225-.765.9-1.305 1.71-1.305Zm6.03 4.05H8.925a.95.95 0 0 1-.945-.945.95.95 0 0 1 .945-.945H21.03a.95.95 0 0 1 .945.945c-.045.54-.45.945-.99.945Z"/><path fill="#fff" d="M11.805 21.795c-.27 0-.45-.18-.45-.45V13.83c0-.27.18-.45.45-.45s.45.18.45.45v7.515c0 .225-.225.45-.45.45ZM18.105 21.795c-.27 0-.45-.18-.45-.45V13.83c0-.27.18-.45.45-.45s.45.18.45.45v7.515c0 .225-.225.45-.45.45ZM14.955 21.795c-.27 0-.45-.18-.45-.45V13.83c0-.27.18-.45.45-.45s.45.18.45.45v7.515c0 .225-.225.45-.45.45Z"/></svg>