<svg width="30" height="36" viewBox="0 0 30 36" fill="none" xmlns="http://www.w3.org/2000/svg">
<path d="M25.2 4.31671C22.14 1.25671 18.07 -0.173289 14.06 0.0167109C10.52 0.186711 7.02 1.61671 4.32 4.32671C-1.44 10.0867 -1.44 19.4367 4.32 25.2067L14.76 35.6467L25.2 25.2067C30.96 19.4467 30.96 10.0967 25.2 4.32671V4.31671Z" fill="#2E3666"/>
<path d="M22.2221 5.17821C22.1896 5.28219 22.1409 5.71297 22.0922 6.12889C21.9948 7.34696 21.0529 8.8027 19.7376 9.82766L19.2505 10.199L19.4778 9.38203C19.7539 8.41648 19.7214 5.87637 19.4453 5.78724C19.3479 5.75753 18.9744 6.14375 18.6334 6.63395C17.9027 7.70347 17.1882 8.13425 15.0771 8.84726C14.2815 9.1295 13.4208 9.44144 13.1772 9.56028C12.3978 9.91679 11.5858 10.6744 11.1799 11.4022C10.4979 12.6203 10.3192 14.8782 10.9038 14.7742C11.0987 14.7445 11.1636 14.5068 11.1799 13.675C11.2286 11.6251 12.3166 10.3327 14.6549 9.60484C16.6848 8.95125 17.724 8.44619 18.4872 7.74803C19.1693 7.09444 19.218 7.07958 19.218 7.42123C19.218 8.20852 18.877 9.42659 18.406 10.2584C18.1462 10.7338 17.9189 11.1943 17.9189 11.2537C17.9189 11.5508 18.5035 11.3428 19.4616 10.7189C20.7931 9.85737 21.5726 9.02552 22.2059 7.77774L22.7255 6.78249L22.9204 7.48065C23.7648 10.6149 23.4887 13.7938 22.2059 15.5763C21.7512 16.2299 21.7025 16.631 22.0922 16.5567C22.4657 16.4973 23.3751 14.9227 23.7161 13.7641C24.1545 12.2786 24.0733 9.35232 23.5537 7.52522C23.3426 6.75278 23.034 5.86151 22.9041 5.54957C22.6443 4.99995 22.352 4.83655 22.2221 5.17821Z" fill="white"/>
<path d="M13.2585 13.4373C12.6901 13.7196 8.02967 18.3393 8.01343 18.6215C8.01343 19.0523 8.53306 18.7552 9.50738 17.7897L10.5466 16.7647L10.8389 17.5075C11.0013 17.9234 11.3748 18.473 11.7321 18.7701L12.3329 19.3048L10.5466 20.8051C7.47755 23.375 7.39636 23.4195 6.87673 23.4195C6.21095 23.4195 5.57764 22.8402 5.57764 22.246C5.57764 21.9044 5.8537 21.5182 6.73058 20.5972C7.65618 19.6465 7.85104 19.3494 7.68866 19.2157C7.42884 18.978 5.31782 21.028 5.07425 21.7855C4.83067 22.4986 5.20415 23.3007 5.93489 23.7166C6.56819 24.0731 7.05535 24.088 7.67242 23.7909C8.40315 23.4492 16.1814 16.9281 16.5062 16.4082C17.1233 15.3536 16.6036 14.0018 15.402 13.467C14.5901 13.1105 13.9567 13.0957 13.2585 13.4373ZM15.1422 13.9721C16.084 14.4177 16.4412 15.6209 15.8567 16.2745C15.5968 16.5419 15.4832 16.5568 14.8661 16.4379C13.8756 16.2151 12.9337 15.7546 12.6252 15.309C12.3654 14.9525 12.3654 14.9228 12.82 14.492C13.5833 13.7493 14.314 13.5859 15.1422 13.9721ZM12.5278 15.9774C12.9337 16.3339 13.5508 16.6607 14.1029 16.839L15.0285 17.1212L13.973 17.9679C13.3884 18.4284 12.8525 18.8146 12.7713 18.8146C12.544 18.8146 11.8133 18.0571 11.5534 17.552C11.0825 16.6905 11.0663 16.3042 11.456 15.8438C11.6671 15.6061 11.8295 15.413 11.8457 15.413C11.8457 15.3981 12.1543 15.6655 12.5278 15.9774Z" fill="white"/>
<path d="M20.6633 17.2698C20.4522 17.4777 19.7539 17.8788 19.1044 18.1759C17.9352 18.7107 17.9027 18.7107 16.3763 18.6215C15.1259 18.5621 14.8336 18.577 14.8336 18.7404C14.8336 19.0523 16.084 19.3048 17.2856 19.2306C17.9514 19.186 18.6822 19.0078 19.2343 18.7849C20.0949 18.4136 21.6538 17.2846 21.6538 17.0173C21.6538 16.7499 21.053 16.8984 20.6633 17.2698Z" fill="white"/>
</svg>
