<svg width="30" height="36" viewBox="0 0 30 36" fill="none" xmlns="http://www.w3.org/2000/svg">
<path d="M25.2 4.31671C22.14 1.25671 18.07 -0.173289 14.06 0.0167109C10.52 0.186711 7.02 1.61671 4.32 4.32671C-1.44 10.0867 -1.44 19.4367 4.32 25.2067L14.76 35.6467L25.2 25.2067C30.96 19.4467 30.96 10.0967 25.2 4.32671V4.31671Z" fill="#009630"/>
<path d="M18.3 25H10.605C9.03749 25 7.80249 23.7175 7.80249 22.1975V13.6C7.80249 13.315 7.99249 13.125 8.27749 13.125C8.56249 13.125 8.75249 13.315 8.75249 13.6V22.1975C8.75249 23.2425 9.60749 24.05 10.605 24.05H18.3C19.345 24.05 20.1525 23.195 20.1525 22.1975V13.6C20.1525 13.315 20.3425 13.125 20.6275 13.125C20.9125 13.125 21.1025 13.315 21.1025 13.6V22.1975C21.1025 23.7175 19.82 25 18.3 25Z" fill="white"/>
<path d="M20.8175 8.3275H17.2075C16.97 6.9975 15.83 6 14.4525 6C13.075 6 11.935 6.9975 11.6975 8.3275H8.08751C6.99501 8.3275 6.14001 9.1825 6.14001 10.275C6.14001 11.3675 6.99501 12.175 8.08751 12.175H20.865C21.9575 12.175 22.8125 11.32 22.8125 10.2275C22.8125 9.135 21.91 8.3275 20.8175 8.3275ZM14.4525 6.95C15.3075 6.95 16.02 7.52 16.21 8.3275H12.6475C12.885 7.52 13.5975 6.95 14.4525 6.95ZM20.8175 11.225H8.08751C7.56501 11.225 7.09001 10.7975 7.09001 10.2275C7.09001 9.705 7.51751 9.23 8.08751 9.23H20.865C21.3875 9.23 21.8625 9.6575 21.8625 10.2275C21.815 10.7975 21.3875 11.225 20.8175 11.225Z" fill="white"/>
<path d="M11.1275 22.6725C10.8425 22.6725 10.6525 22.4825 10.6525 22.1975V14.265C10.6525 13.98 10.8425 13.79 11.1275 13.79C11.4125 13.79 11.6025 13.98 11.6025 14.265V22.1975C11.6025 22.435 11.365 22.6725 11.1275 22.6725Z" fill="white"/>
<path d="M17.7775 22.6725C17.4925 22.6725 17.3025 22.4825 17.3025 22.1975V14.265C17.3025 13.98 17.4925 13.79 17.7775 13.79C18.0625 13.79 18.2525 13.98 18.2525 14.265V22.1975C18.2525 22.435 18.015 22.6725 17.7775 22.6725Z" fill="white"/>
<path d="M14.4525 22.6725C14.1675 22.6725 13.9775 22.4825 13.9775 22.1975V14.265C13.9775 13.98 14.1675 13.79 14.4525 13.79C14.7375 13.79 14.9275 13.98 14.9275 14.265V22.1975C14.9275 22.435 14.69 22.6725 14.4525 22.6725Z" fill="white"/>
</svg>
