<svg width="24" height="24" viewBox="0 0 24 24" fill="none" xmlns="http://www.w3.org/2000/svg">
<path d="M23.9672 23.5419L23.9672 10.3867H20.6784L20.6784 23.5419H23.9672ZM17.3896 23.5419L17.3896 10.3867C16.4687 10.3867 15.6465 10.0907 15.0216 9.46582C14.3968 8.84095 11.2395 2.49358 10.812 1.63849C10.3844 0.783406 9.52935 0.355863 8.64138 0.618966C7.78629 0.88207 7.32586 1.80293 7.62185 2.69091C7.88495 3.54599 9.16758 7.92009 9.16758 8.74229C9.16758 9.56449 8.44405 10.3867 7.52319 10.3867L2.58999 10.3867C1.66913 10.3867 0.945595 11.1102 0.945595 12.0311C0.945595 12.9519 4.33305 22.5223 4.33305 22.5223C4.59616 23.1143 5.18814 23.5419 5.87879 23.5419L17.3896 23.5419Z" fill="#BAC7D3"/>
</svg>
