<svg width="22" height="18" viewBox="0 0 22 18" fill="none" xmlns="http://www.w3.org/2000/svg">
<g id="&#237;&#131;&#128;&#236;&#158;&#132;&#237;&#133;&#140;&#236;&#157;&#180;&#235;&#184;&#148; &#236;&#149;&#132;&#236;&#157;&#180;&#236;&#189;&#152;">
<path id="Vector" d="M19.0928 2.06347V2.58049C19.0928 3.9695 18.0607 5.16088 16.7039 5.2611C15.1911 5.3735 13.9297 4.15308 13.9297 2.63294V2.06441C13.9297 1.7572 13.6857 1.50899 13.3857 1.50899H8.64735C8.3391 1.50899 8.08865 1.76469 8.08865 2.0794V2.58143C8.08865 3.97044 7.05659 5.16182 5.69976 5.26204C4.18698 5.37443 2.92556 4.15401 2.92556 2.63388V2.0794C2.92556 1.76469 2.67512 1.50899 2.36687 1.50899H1.10087C0.49264 1.50899 0 2.01196 0 2.63294V16.8762C0 17.4971 0.49264 18.0001 1.10087 18.0001H20.8991C21.5074 18.0001 22 17.4971 22 16.8762V2.632C22 2.01102 21.5074 1.50806 20.8991 1.50806H19.6377C19.3368 1.50806 19.0937 1.7572 19.0937 2.06347H19.0928ZM10.2748 13.509H4.42825C4.05946 13.509 3.73012 13.2421 3.67783 12.8693C3.61269 12.4047 3.96313 12.0067 4.40532 12.0067H10.2519C10.6207 12.0067 10.95 12.2736 11.0023 12.6464C11.0674 13.1109 10.717 13.509 10.2748 13.509ZM18.3506 9.00291C18.3506 9.41783 18.0213 9.75408 17.6149 9.75408H4.40441C3.998 9.75408 3.66865 9.41783 3.66865 9.00291C3.66865 8.58799 3.998 8.25174 4.40441 8.25174H17.6149C18.0213 8.25174 18.3506 8.58799 18.3506 9.00291Z" fill="#BBC7D3"/>
<path id="Vector_2" d="M5.49764 0H5.49672C4.8791 0 4.37842 0.511176 4.37842 1.14174V2.62816C4.37842 3.25873 4.8791 3.76991 5.49672 3.76991H5.49764C6.11526 3.76991 6.61594 3.25873 6.61594 2.62816V1.14174C6.61594 0.511176 6.11526 0 5.49764 0Z" fill="#BBC7D3"/>
<path id="Vector_3" d="M16.4967 0H16.4957C15.8781 0 15.3774 0.511176 15.3774 1.14174V2.62816C15.3774 3.25873 15.8781 3.76991 16.4957 3.76991H16.4967C17.1143 3.76991 17.615 3.25873 17.615 2.62816V1.14174C17.615 0.511176 17.1143 0 16.4967 0Z" fill="#BBC7D3"/>
</g>
</svg>
