<svg xmlns="http://www.w3.org/2000/svg" width="22" height="17" fill="none"><path fill="#BBC7D3" d="M19.093 1.063v.517c0 1.39-1.032 2.58-2.39 2.68-1.512.113-2.773-1.107-2.773-2.627v-.569a.55.55 0 0 0-.544-.555H8.647a.565.565 0 0 0-.558.57v.502c0 1.39-1.032 2.58-2.39 2.68-1.512.113-2.773-1.107-2.773-2.627v-.555c0-.315-.25-.57-.56-.57H1.102C.493.509 0 1.012 0 1.633v14.243C0 16.496.493 17 1.1 17h19.8c.607 0 1.1-.503 1.1-1.124V1.632c0-.621-.493-1.124-1.1-1.124h-1.262a.55.55 0 0 0-.544.555h-.001ZM10.275 12.51H4.428a.755.755 0 0 1-.75-.64.746.746 0 0 1 .727-.863h5.847c.369 0 .698.267.75.64a.746.746 0 0 1-.727.863Zm8.076-4.506c0 .415-.33.75-.736.75H4.405a.744.744 0 0 1-.736-.75c0-.415.329-.752.735-.752h13.21c.407 0 .737.337.737.752Z"/></svg>